<svg width="5287" height="446" viewBox="0 0 5287 446" fill="none" xmlns="http://www.w3.org/2000/svg">
<g filter="url(#filter0_d_1162_2684)">
<path d="M38.6698 438.414L30.9572 438.994L27.158 429.496L13.1351 430.551L10.9745 440.497L3.43723 441.064L13.8887 397.207L21.3968 396.643L38.6698 438.414ZM24.3366 422.452L18.3211 406.922L14.7543 423.172L24.3366 422.452ZM42.4384 438.131L39.2175 395.302L54.1461 394.18C57.9634 393.893 60.7194 394.077 62.414 394.733C64.1071 395.37 65.5513 396.603 66.7466 398.432C67.9404 400.242 68.6369 402.472 68.8361 405.121C69.088 408.47 68.4826 411.229 67.0198 413.395C65.5766 415.56 63.3945 417.017 60.4737 417.766C62.0749 418.742 63.4212 419.845 64.5126 421.076C65.6025 422.286 67.1304 424.502 69.0963 427.723L73.9899 435.758L65.547 436.393L59.7044 427.46C57.6008 424.23 56.1864 422.221 55.4612 421.433C54.7345 420.626 53.9895 420.094 53.2259 419.838C52.4609 419.563 51.2604 419.487 49.6244 419.61L48.1637 419.72L49.5083 437.599L42.4384 438.131ZM47.6496 412.884L52.9082 412.488C56.1218 412.246 58.1565 411.956 59.0124 411.618C59.8669 411.26 60.5346 410.632 61.0155 409.734C61.4963 408.836 61.6833 407.676 61.5764 406.254C61.4739 404.891 61.1192 403.821 60.5123 403.044C59.904 402.247 59.1207 401.728 58.1624 401.487C57.4841 401.322 55.5576 401.36 52.383 401.598L46.8323 402.016L47.6496 412.884ZM92.9929 418.493L92.4502 411.277L107.729 410.128L109.012 427.189C107.61 429.116 105.546 430.838 102.82 432.356C100.094 433.873 97.3093 434.739 94.4657 434.952C90.999 435.213 87.8775 434.596 85.1013 433.101C82.3236 431.586 80.0283 429.193 78.2153 425.921C76.4204 422.628 75.3501 418.684 75.0044 414.087C74.6499 409.374 75.1258 405.284 76.432 401.817C77.7576 398.348 79.6047 395.693 81.9731 393.85C84.3611 392.005 87.2981 390.952 90.7844 390.69C94.9718 390.375 98.4023 391.194 101.076 393.148C103.767 395.08 105.629 398.084 106.66 402.158L99.7693 404.293C99.0779 402.131 97.9871 400.519 96.497 399.456C95.0068 398.393 93.2879 397.935 91.3403 398.081C88.3214 398.308 85.9658 399.67 84.2733 402.167C82.5793 404.645 81.9133 408.289 82.275 413.1C82.6632 418.261 83.9711 422.109 86.1988 424.645C88.1064 426.832 90.5405 427.815 93.5009 427.592C94.8837 427.488 96.291 427.059 97.7229 426.305C99.1727 425.53 100.439 424.534 101.523 423.316L101.114 417.882L92.9929 418.493ZM116.059 432.594L112.838 389.766L138.897 387.806L139.442 395.051L120.453 396.479L121.167 405.974L138.812 404.647L139.355 411.863L121.709 413.19L122.586 424.846L142.218 423.37L142.761 430.586L116.059 432.594ZM148.837 430.129L145.616 387.301L152.511 386.782L169.035 414.302L166.884 385.701L173.487 385.205L176.708 428.033L169.579 428.569L153.339 401.703L155.44 429.632L148.837 430.129ZM192.074 426.877L189.398 391.294L178.969 392.078L178.424 384.833L206.324 382.735L206.869 389.98L196.468 390.762L199.144 426.346L192.074 426.877ZM224.269 424.456L234.595 401.204L222.158 381.544L230.455 380.92L238.53 394.151L244.39 379.872L252.599 379.255L243.267 400.875L256.93 422L248.371 422.643L239.456 408.418L232.77 423.817L224.269 424.456ZM274.196 420.701L270.975 377.873L282.369 377.016C286.615 376.697 289.405 376.693 290.741 377.003C292.875 377.509 294.695 378.792 296.201 380.853C297.727 382.912 298.618 385.646 298.875 389.054C299.108 392.151 298.719 394.795 297.708 396.986C296.697 399.158 295.346 400.739 293.658 401.727C291.968 402.697 288.981 403.342 284.696 403.665L280.051 404.014L281.266 420.17L274.196 420.701ZM278.59 384.586L279.504 396.74L283.419 396.445C286.048 396.248 287.816 395.928 288.723 395.488C289.65 395.046 290.379 394.326 290.911 393.326C291.441 392.307 291.654 391.096 291.548 389.694C291.442 388.272 291.04 387.097 290.343 386.17C289.647 385.244 288.829 384.649 287.888 384.387C286.948 384.124 284.998 384.105 282.037 384.327L278.59 384.586ZM303.381 418.506L313.708 395.254L301.27 375.595L309.567 374.971L317.643 388.201L323.503 373.923L331.712 373.305L322.379 394.925L336.043 416.05L327.483 416.694L318.569 402.469L311.883 417.867L303.381 418.506ZM339.841 415.764L336.646 373.287L343.716 372.755L346.368 408.017L364.013 406.69L364.556 413.906L339.841 415.764ZM366.78 399.724L373.642 398.386C374.833 403.8 377.59 406.344 381.914 406.019C384.056 405.858 385.699 405.176 386.843 403.974C387.985 402.752 388.494 401.313 388.369 399.658C388.296 398.684 388.019 397.872 387.54 397.223C387.06 396.574 386.366 396.068 385.457 395.705C384.547 395.323 382.368 394.743 378.921 393.964C375.834 393.275 373.548 392.448 372.066 391.483C370.583 390.517 369.357 389.199 368.39 387.528C367.44 385.837 366.889 383.988 366.739 381.982C366.563 379.645 366.93 377.502 367.842 375.553C368.772 373.603 370.136 372.08 371.934 370.985C373.732 369.891 376.004 369.24 378.751 369.033C382.879 368.723 386.187 369.6 388.673 371.666C391.159 373.731 392.627 376.843 393.077 381L386.006 381.914C385.522 379.639 384.729 378.083 383.628 377.245C382.527 376.408 381.022 376.06 379.113 376.204C377.205 376.348 375.764 376.857 374.792 377.734C373.82 378.61 373.379 379.642 373.468 380.83C373.556 381.998 374.097 382.947 375.092 383.675C376.087 384.403 378.305 385.118 381.746 385.819C385.388 386.583 388.041 387.48 389.705 388.511C391.387 389.52 392.715 390.899 393.688 392.647C394.661 394.376 395.243 396.526 395.437 399.097C395.717 402.817 394.803 406.029 392.695 408.734C390.606 411.437 387.128 412.972 382.259 413.338C373.65 413.986 368.491 409.448 366.78 399.724ZM445.86 407.791L438.147 408.371L434.348 398.874L420.325 399.928L418.165 409.874L410.627 410.441L421.079 366.584L428.587 366.02L445.86 407.791ZM431.527 391.829L425.511 376.299L421.944 392.55L431.527 391.829ZM449.628 407.508L446.407 364.68L461.336 363.557C465.153 363.27 467.909 363.454 469.604 364.11C471.297 364.747 472.741 365.98 473.937 367.809C475.13 369.62 475.827 371.849 476.026 374.498C476.278 377.848 475.673 380.606 474.21 382.773C472.767 384.938 470.585 386.394 467.664 387.143C469.265 388.119 470.611 389.223 471.703 390.453C472.793 391.664 474.32 393.879 476.286 397.101L481.18 405.135L472.737 405.77L466.894 396.837C464.791 393.607 463.376 391.598 462.651 390.81C461.925 390.003 461.179 389.472 460.416 389.216C459.651 388.94 458.45 388.864 456.814 388.987L455.354 389.097L456.698 406.976L449.628 407.508ZM454.84 382.261L460.098 381.865C463.312 381.624 465.346 381.334 466.202 380.995C467.057 380.637 467.725 380.009 468.205 379.111C468.686 378.213 468.873 377.053 468.766 375.631C468.664 374.268 468.309 373.198 467.702 372.421C467.094 371.624 466.311 371.105 465.352 370.864C464.674 370.7 462.748 370.737 459.573 370.976L454.022 371.393L454.84 382.261ZM500.183 387.87L499.64 380.654L514.919 379.505L516.202 396.567C514.8 398.494 512.736 400.216 510.01 401.733C507.284 403.25 504.499 404.116 501.656 404.33C498.189 404.59 495.067 403.973 492.291 402.478C489.514 400.963 487.218 398.57 485.405 395.298C483.61 392.006 482.54 388.061 482.194 383.465C481.84 378.751 482.316 374.661 483.622 371.194C484.948 367.726 486.795 365.07 489.163 363.227C491.551 361.383 494.488 360.329 497.974 360.067C502.162 359.752 505.592 360.571 508.266 362.525C510.957 364.457 512.819 367.461 513.85 371.536L506.959 373.67C506.268 371.509 505.177 369.896 503.687 368.833C502.197 367.77 500.478 367.312 498.53 367.458C495.511 367.685 493.156 369.047 491.463 371.545C489.769 374.022 489.103 377.667 489.465 382.477C489.853 387.638 491.161 391.487 493.389 394.022C495.296 396.209 497.73 397.192 500.691 396.969C502.074 396.865 503.481 396.436 504.913 395.682C506.363 394.907 507.629 393.911 508.713 392.693L508.304 387.26L500.183 387.87ZM523.249 401.971L520.028 359.143L546.087 357.183L546.632 364.428L527.642 365.856L528.357 375.351L546.002 374.024L546.545 381.24L528.899 382.567L529.776 394.224L549.408 392.747L549.951 399.963L523.249 401.971ZM556.027 399.506L552.806 356.678L559.701 356.159L576.225 383.679L574.074 355.078L580.677 354.582L583.898 397.41L576.769 397.946L560.529 371.081L562.63 399.01L556.027 399.506ZM599.264 396.255L596.588 360.671L586.159 361.456L585.614 354.211L613.514 352.112L614.059 359.358L603.658 360.14L606.334 395.723L599.264 396.255ZM631.459 393.833L641.785 370.581L629.348 350.922L637.645 350.298L645.72 363.528L651.58 349.25L659.789 348.632L650.457 370.252L664.12 391.377L655.561 392.021L646.646 377.796L639.96 393.194L631.459 393.833ZM681.386 390.079L678.165 347.25L689.559 346.393C693.805 346.074 696.595 346.07 697.931 346.381C700.065 346.886 701.885 348.169 703.391 350.23C704.917 352.289 705.808 355.023 706.065 358.432C706.298 361.528 705.909 364.172 704.898 366.364C703.887 368.536 702.536 370.116 700.848 371.105C699.158 372.074 696.171 372.72 691.886 373.042L687.241 373.391L688.456 389.547L681.386 390.079ZM685.78 353.964L686.694 366.117L690.609 365.823C693.238 365.625 695.006 365.306 695.913 364.865C696.84 364.424 697.569 363.703 698.101 362.703C698.631 361.684 698.844 360.473 698.738 359.071C698.632 357.649 698.23 356.475 697.533 355.548C696.837 354.621 696.018 354.026 695.078 353.764C694.138 353.502 692.188 353.482 689.227 353.704L685.78 353.964ZM710.571 387.884L720.898 364.632L708.46 344.972L716.757 344.348L724.833 357.578L730.693 343.3L738.902 342.683L729.569 364.303L743.233 385.427L734.673 386.071L725.759 371.846L719.073 387.244L710.571 387.884ZM747.031 385.142L743.836 342.664L750.906 342.132L753.558 377.394L771.203 376.067L771.746 383.283L747.031 385.142ZM773.97 369.102L780.832 367.763C782.023 373.177 784.78 375.722 789.104 375.397C791.246 375.235 792.889 374.554 794.033 373.351C795.175 372.129 795.684 370.691 795.559 369.035C795.486 368.061 795.209 367.25 794.73 366.6C794.25 365.951 793.556 365.445 792.647 365.082C791.737 364.7 789.558 364.12 786.111 363.341C783.024 362.653 780.738 361.826 779.256 360.86C777.773 359.894 776.547 358.576 775.58 356.906C774.63 355.214 774.079 353.366 773.929 351.36C773.753 349.022 774.12 346.879 775.032 344.931C775.962 342.98 777.326 341.458 779.124 340.363C780.922 339.268 783.194 338.617 785.94 338.411C790.069 338.1 793.377 338.977 795.863 341.043C798.349 343.108 799.817 346.22 800.267 350.378L793.196 351.291C792.712 349.017 791.919 347.46 790.818 346.623C789.717 345.785 788.212 345.438 786.303 345.581C784.395 345.725 782.954 346.235 781.982 347.111C781.01 347.987 780.569 349.019 780.658 350.207C780.746 351.376 781.287 352.324 782.282 353.052C783.277 353.781 785.495 354.495 788.936 355.196C792.578 355.96 795.231 356.858 796.895 357.888C798.577 358.898 799.905 360.276 800.878 362.025C801.851 363.754 802.433 365.903 802.627 368.474C802.907 372.194 801.993 375.407 799.885 378.111C797.796 380.815 794.318 382.349 789.449 382.716C780.84 383.363 775.681 378.825 773.97 369.102ZM853.05 377.169L845.337 377.749L841.538 368.251L827.515 369.306L825.354 379.251L817.817 379.818L828.269 335.962L835.777 335.397L853.05 377.169ZM838.717 361.206L832.701 345.676L829.134 361.927L838.717 361.206ZM856.818 376.885L853.597 334.057L868.526 332.934C872.343 332.647 875.099 332.832 876.794 333.488C878.487 334.124 879.931 335.357 881.127 337.187C882.32 338.997 883.017 341.226 883.216 343.875C883.468 347.225 882.863 349.983 881.4 352.15C879.957 354.315 877.774 355.772 874.854 356.52C876.455 357.497 877.801 358.6 878.893 359.83C879.982 361.041 881.51 363.257 883.476 366.478L888.37 374.512L879.927 375.147L874.084 366.215C871.981 362.984 870.566 360.975 869.841 360.188C869.114 359.381 868.369 358.849 867.606 358.593C866.841 358.318 865.64 358.241 864.004 358.364L862.544 358.474L863.888 376.353L856.818 376.885ZM862.03 351.638L867.288 351.243C870.502 351.001 872.536 350.711 873.392 350.372C874.247 350.014 874.915 349.386 875.395 348.488C875.876 347.59 876.063 346.43 875.956 345.009C875.854 343.645 875.499 342.575 874.892 341.798C874.284 341.002 873.501 340.483 872.542 340.241C871.864 340.077 869.938 340.114 866.763 340.353L861.212 340.77L862.03 351.638ZM907.373 357.248L906.83 350.032L922.109 348.883L923.392 365.944C921.99 367.871 919.926 369.593 917.2 371.11C914.474 372.628 911.689 373.493 908.846 373.707C905.379 373.968 902.257 373.35 899.481 371.855C896.704 370.34 894.408 367.947 892.595 364.676C890.8 361.383 889.73 357.438 889.384 352.842C889.03 348.129 889.506 344.039 890.812 340.572C892.138 337.103 893.985 334.447 896.353 332.604C898.741 330.76 901.678 329.706 905.164 329.444C909.352 329.129 912.782 329.949 915.456 331.902C918.147 333.835 920.009 336.838 921.04 340.913L914.149 343.047C913.458 340.886 912.367 339.274 910.877 338.211C909.387 337.147 907.668 336.689 905.72 336.836C902.701 337.063 900.346 338.425 898.653 340.922C896.959 343.4 896.293 347.044 896.655 351.855C897.043 357.016 898.351 360.864 900.579 363.399C902.486 365.587 904.92 366.569 907.881 366.346C909.264 366.242 910.671 365.813 912.103 365.059C913.553 364.284 914.819 363.288 915.903 362.071L915.494 356.637L907.373 357.248ZM930.439 371.349L927.218 328.52L953.277 326.56L953.822 333.806L934.832 335.234L935.546 344.728L953.192 343.401L953.735 350.617L936.089 351.944L936.966 363.601L956.598 362.124L957.141 369.34L930.439 371.349ZM963.217 368.883L959.996 326.055L966.891 325.537L983.415 353.057L981.264 324.456L987.867 323.959L991.088 366.787L983.959 367.324L967.719 340.458L969.82 368.387L963.217 368.883ZM1006.45 365.632L1003.78 330.049L993.349 330.833L992.804 323.588L1020.7 321.49L1021.25 328.735L1010.85 329.517L1013.52 365.1L1006.45 365.632ZM1038.65 363.211L1048.98 339.959L1036.54 320.299L1044.83 319.675L1052.91 332.905L1058.77 318.627L1066.98 318.01L1057.65 339.63L1071.31 360.754L1062.75 361.398L1053.84 347.173L1047.15 362.571L1038.65 363.211ZM1088.58 359.456L1085.36 316.628L1096.75 315.771C1100.99 315.451 1103.79 315.447 1105.12 315.758C1107.25 316.264 1109.07 317.547 1110.58 319.607C1112.11 321.667 1113 324.401 1113.25 327.809C1113.49 330.906 1113.1 333.55 1112.09 335.741C1111.08 337.913 1109.73 339.493 1108.04 340.482C1106.35 341.451 1103.36 342.097 1099.08 342.419L1094.43 342.769L1095.65 358.924L1088.58 359.456ZM1092.97 323.341L1093.88 335.494L1097.8 335.2C1100.43 335.002 1102.2 334.683 1103.1 334.243C1104.03 333.801 1104.76 333.08 1105.29 332.08C1105.82 331.061 1106.03 329.85 1105.93 328.448C1105.82 327.026 1105.42 325.852 1104.72 324.925C1104.03 323.998 1103.21 323.403 1102.27 323.141C1101.33 322.879 1099.38 322.859 1096.42 323.082L1092.97 323.341ZM1117.76 357.261L1128.09 334.009L1115.65 314.349L1123.95 313.725L1132.02 326.956L1137.88 312.677L1146.09 312.06L1136.76 333.68L1150.42 354.805L1141.86 355.448L1132.95 341.223L1126.26 356.622L1117.76 357.261ZM1154.22 354.519L1151.03 312.041L1158.1 311.51L1160.75 346.771L1178.39 345.444L1178.94 352.66L1154.22 354.519ZM1181.16 338.479L1188.02 337.14C1189.21 342.554 1191.97 345.099 1196.29 344.774C1198.44 344.613 1200.08 343.931 1201.22 342.729C1202.36 341.507 1202.87 340.068 1202.75 338.412C1202.68 337.439 1202.4 336.627 1201.92 335.978C1201.44 335.328 1200.75 334.822 1199.84 334.46C1198.93 334.078 1196.75 333.497 1193.3 332.718C1190.21 332.03 1187.93 331.203 1186.45 330.237C1184.96 329.271 1183.74 327.953 1182.77 326.283C1181.82 324.592 1181.27 322.743 1181.12 320.737C1180.94 318.4 1181.31 316.257 1182.22 314.308C1183.15 312.358 1184.52 310.835 1186.31 309.74C1188.11 308.645 1190.38 307.994 1193.13 307.788C1197.26 307.477 1200.57 308.355 1203.05 310.42C1205.54 312.486 1207.01 315.597 1207.46 319.755L1200.39 320.669C1199.9 318.394 1199.11 316.838 1198.01 316C1196.91 315.162 1195.4 314.815 1193.49 314.959C1191.58 315.102 1190.14 315.612 1189.17 316.488C1188.2 317.364 1187.76 318.396 1187.85 319.584C1187.94 320.753 1188.48 321.701 1189.47 322.43C1190.47 323.158 1192.69 323.872 1196.13 324.573C1199.77 325.338 1202.42 326.235 1204.08 327.265C1205.77 328.275 1207.09 329.654 1208.07 331.402C1209.04 333.131 1209.62 335.281 1209.82 337.852C1210.1 341.572 1209.18 344.784 1207.07 347.489C1204.99 350.192 1201.51 351.727 1196.64 352.093C1188.03 352.74 1182.87 348.202 1181.16 338.479ZM1260.24 346.546L1252.53 347.126L1248.73 337.628L1234.71 338.683L1232.54 348.629L1225.01 349.196L1235.46 305.339L1242.97 304.774L1260.24 346.546ZM1245.91 330.584L1239.89 315.054L1236.32 331.304L1245.91 330.584ZM1264.01 346.262L1260.79 303.434L1275.72 302.311C1279.53 302.024 1282.29 302.209 1283.98 302.865C1285.68 303.501 1287.12 304.734 1288.32 306.564C1289.51 308.374 1290.21 310.604 1290.41 313.252C1290.66 316.602 1290.05 319.361 1288.59 321.527C1287.15 323.692 1284.96 325.149 1282.04 325.897C1283.64 326.874 1284.99 327.977 1286.08 329.207C1287.17 330.418 1288.7 332.634 1290.67 335.855L1295.56 343.89L1287.12 344.525L1281.27 335.592C1279.17 332.362 1277.76 330.353 1277.03 329.565C1276.3 328.758 1275.56 328.226 1274.8 327.97C1274.03 327.695 1272.83 327.619 1271.19 327.742L1269.73 327.852L1271.08 345.731L1264.01 346.262ZM1269.22 321.015L1274.48 320.62C1277.69 320.378 1279.73 320.088 1280.58 319.75C1281.44 319.391 1282.1 318.763 1282.59 317.865C1283.07 316.968 1283.25 315.808 1283.15 314.386C1283.04 313.023 1282.69 311.952 1282.08 311.175C1281.47 310.379 1280.69 309.86 1279.73 309.619C1279.05 309.454 1277.13 309.491 1273.95 309.73L1268.4 310.148L1269.22 321.015ZM1314.56 326.625L1314.02 319.409L1329.3 318.26L1330.58 335.321C1329.18 337.248 1327.12 338.97 1324.39 340.488C1321.66 342.005 1318.88 342.87 1316.04 343.084C1312.57 343.345 1309.45 342.728 1306.67 341.232C1303.89 339.718 1301.6 337.325 1299.79 334.053C1297.99 330.76 1296.92 326.816 1296.57 322.219C1296.22 317.506 1296.7 313.416 1298 309.949C1299.33 306.48 1301.17 303.824 1303.54 301.982C1305.93 300.137 1308.87 299.084 1312.35 298.822C1316.54 298.507 1319.97 299.326 1322.65 301.279C1325.34 303.212 1327.2 306.216 1328.23 310.29L1321.34 312.424C1320.65 310.263 1319.56 308.651 1318.07 307.588C1316.58 306.525 1314.86 306.066 1312.91 306.213C1309.89 306.44 1307.54 307.802 1305.84 310.299C1304.15 312.777 1303.48 316.421 1303.84 321.232C1304.23 326.393 1305.54 330.241 1307.77 332.777C1309.68 334.964 1312.11 335.946 1315.07 335.724C1316.45 335.62 1317.86 335.191 1319.29 334.437C1320.74 333.662 1322.01 332.665 1323.09 331.448L1322.68 326.014L1314.56 326.625ZM1337.63 340.726L1334.41 297.898L1360.47 295.938L1361.01 303.183L1342.02 304.611L1342.74 314.106L1360.38 312.779L1360.92 319.995L1343.28 321.322L1344.16 332.978L1363.79 331.502L1364.33 338.718L1337.63 340.726ZM1370.41 338.261L1367.19 295.432L1374.08 294.914L1390.61 322.434L1388.45 293.833L1395.06 293.336L1398.28 336.165L1391.15 336.701L1374.91 309.835L1377.01 337.764L1370.41 338.261ZM1413.64 335.009L1410.97 299.426L1400.54 300.21L1399.99 292.965L1427.89 290.867L1428.44 298.112L1418.04 298.894L1420.71 334.477L1413.64 335.009ZM1445.84 332.588L1456.16 309.336L1443.73 289.676L1452.02 289.052L1460.1 302.283L1465.96 288.004L1474.17 287.387L1464.84 309.007L1478.5 330.132L1469.94 330.775L1461.03 316.55L1454.34 331.949L1445.84 332.588ZM1495.77 328.833L1492.55 286.005L1503.94 285.148C1508.18 284.829 1510.98 284.824 1512.31 285.135C1514.44 285.641 1516.26 286.924 1517.77 288.985C1519.3 291.044 1520.19 293.778 1520.44 297.186C1520.68 300.283 1520.29 302.927 1519.28 305.118C1518.27 307.29 1516.92 308.87 1515.23 309.859C1513.54 310.829 1510.55 311.474 1506.27 311.797L1501.62 312.146L1502.84 328.301L1495.77 328.833ZM1500.16 292.718L1501.07 304.871L1504.99 304.577C1507.62 304.379 1509.39 304.06 1510.29 303.62C1511.22 303.178 1511.95 302.457 1512.48 301.458C1513.01 300.438 1513.22 299.228 1513.12 297.825C1513.01 296.404 1512.61 295.229 1511.91 294.302C1511.22 293.375 1510.4 292.781 1509.46 292.518C1508.52 292.256 1506.57 292.236 1503.61 292.459L1500.16 292.718ZM1524.95 326.638L1535.28 303.386L1522.84 283.726L1531.14 283.103L1539.21 296.333L1545.07 282.055L1553.28 281.437L1543.95 303.057L1557.61 324.182L1549.05 324.826L1540.14 310.601L1533.45 325.999L1524.95 326.638ZM1561.41 323.896L1558.22 281.419L1565.29 280.887L1567.94 316.149L1585.58 314.822L1586.13 322.038L1561.41 323.896ZM1588.35 307.856L1595.21 306.518C1596.4 311.932 1599.16 314.476 1603.48 314.151C1605.63 313.99 1607.27 313.308 1608.41 312.106C1609.55 310.884 1610.06 309.445 1609.94 307.79C1609.87 306.816 1609.59 306.004 1609.11 305.355C1608.63 304.705 1607.94 304.199 1607.03 303.837C1606.12 303.455 1603.94 302.874 1600.49 302.096C1597.4 301.407 1595.12 300.58 1593.64 299.614C1592.15 298.649 1590.93 297.331 1589.96 295.66C1589.01 293.969 1588.46 292.12 1588.31 290.114C1588.13 287.777 1588.5 285.634 1589.41 283.685C1590.34 281.735 1591.71 280.212 1593.5 279.117C1595.3 278.022 1597.57 277.372 1600.32 277.165C1604.45 276.855 1607.76 277.732 1610.24 279.798C1612.73 281.863 1614.2 284.975 1614.65 289.132L1607.58 290.046C1607.09 287.771 1606.3 286.215 1605.2 285.377C1604.1 284.539 1602.59 284.192 1600.68 284.336C1598.77 284.479 1597.33 284.989 1596.36 285.865C1595.39 286.741 1594.95 287.774 1595.04 288.962C1595.13 290.13 1595.67 291.079 1596.66 291.807C1597.66 292.535 1599.88 293.25 1603.32 293.951C1606.96 294.715 1609.61 295.612 1611.27 296.643C1612.96 297.652 1614.28 299.031 1615.26 300.779C1616.23 302.508 1616.81 304.658 1617.01 307.229C1617.29 310.949 1616.37 314.161 1614.26 316.866C1612.18 319.569 1608.7 321.104 1603.83 321.47C1595.22 322.118 1590.06 317.58 1588.35 307.856ZM1667.43 315.923L1659.72 316.503L1655.92 307.005L1641.9 308.06L1639.73 318.006L1632.2 318.573L1642.65 274.716L1650.16 274.152L1667.43 315.923ZM1653.1 299.961L1647.08 284.431L1643.51 300.682L1653.1 299.961ZM1671.2 315.64L1667.98 272.811L1682.91 271.689C1686.72 271.402 1689.48 271.586 1691.17 272.242C1692.87 272.879 1694.31 274.112 1695.51 275.941C1696.7 277.751 1697.4 279.981 1697.6 282.63C1697.85 285.98 1697.24 288.738 1695.78 290.904C1694.34 293.069 1692.15 294.526 1689.23 295.275C1690.83 296.251 1692.18 297.355 1693.27 298.585C1694.36 299.795 1695.89 302.011 1697.86 305.232L1702.75 313.267L1694.31 313.902L1688.46 304.969C1686.36 301.739 1684.95 299.73 1684.22 298.942C1683.49 298.135 1682.75 297.604 1681.99 297.348C1681.22 297.072 1680.02 296.996 1678.38 297.119L1676.92 297.229L1678.27 315.108L1671.2 315.64ZM1676.41 290.393L1681.67 289.997C1684.88 289.756 1686.92 289.465 1687.77 289.127C1688.63 288.769 1689.29 288.141 1689.78 287.243C1690.26 286.345 1690.44 285.185 1690.34 283.763C1690.23 282.4 1689.88 281.33 1689.27 280.553C1688.66 279.756 1687.88 279.237 1686.92 278.996C1686.24 278.832 1684.32 278.869 1681.14 279.107L1675.59 279.525L1676.41 290.393ZM1721.75 296.002L1721.21 288.786L1736.49 287.637L1737.77 304.698C1736.37 306.625 1734.31 308.347 1731.58 309.865C1728.85 311.382 1726.07 312.248 1723.23 312.461C1719.76 312.722 1716.64 312.105 1713.86 310.61C1711.08 309.095 1708.79 306.702 1706.98 303.43C1705.18 300.137 1704.11 296.193 1703.76 291.597C1703.41 286.883 1703.89 282.793 1705.19 279.326C1706.52 275.858 1708.36 273.202 1710.73 271.359C1713.12 269.514 1716.06 268.461 1719.54 268.199C1723.73 267.884 1727.16 268.703 1729.84 270.657C1732.53 272.589 1734.39 275.593 1735.42 279.668L1728.53 281.802C1727.84 279.64 1726.75 278.028 1725.26 276.965C1723.77 275.902 1722.05 275.444 1720.1 275.59C1717.08 275.817 1714.73 277.179 1713.03 279.677C1711.34 282.154 1710.67 285.798 1711.03 290.609C1711.42 295.77 1712.73 299.619 1714.96 302.154C1716.87 304.341 1719.3 305.324 1722.26 305.101C1723.64 304.997 1725.05 304.568 1726.48 303.814C1727.93 303.039 1729.2 302.043 1730.28 300.825L1729.87 295.391L1721.75 296.002ZM1744.82 310.103L1741.6 267.275L1767.66 265.315L1768.2 272.56L1749.21 273.988L1749.93 283.483L1767.57 282.156L1768.11 289.372L1750.47 290.699L1751.35 302.355L1770.98 300.879L1771.52 308.095L1744.82 310.103ZM1777.6 307.638L1774.38 264.81L1781.27 264.291L1797.8 291.811L1795.64 263.21L1802.25 262.714L1805.47 305.542L1798.34 306.078L1782.1 279.213L1784.2 307.141L1777.6 307.638ZM1820.83 304.386L1818.16 268.803L1807.73 269.588L1807.18 262.342L1835.08 260.244L1835.63 267.489L1825.23 268.272L1827.9 303.855L1820.83 304.386ZM1853.03 301.965L1863.35 278.713L1850.92 259.053L1859.21 258.429L1867.29 271.66L1873.15 257.381L1881.36 256.764L1872.03 278.384L1885.69 299.509L1877.13 300.153L1868.22 285.928L1861.53 301.326L1853.03 301.965ZM1902.96 298.21L1899.74 255.382L1911.13 254.525C1915.37 254.206 1918.17 254.202 1919.5 254.513C1921.63 255.018 1923.45 256.301 1924.96 258.362C1926.49 260.421 1927.38 263.155 1927.63 266.564C1927.87 269.66 1927.48 272.304 1926.47 274.496C1925.46 276.667 1924.11 278.248 1922.42 279.236C1920.73 280.206 1917.74 280.852 1913.46 281.174L1908.81 281.523L1910.03 297.679L1902.96 298.21ZM1907.35 262.096L1908.26 274.249L1912.18 273.954C1914.81 273.757 1916.58 273.438 1917.48 272.997C1918.41 272.555 1919.14 271.835 1919.67 270.835C1920.2 269.816 1920.41 268.605 1920.31 267.203C1920.2 265.781 1919.8 264.606 1919.1 263.68C1918.41 262.753 1917.59 262.158 1916.65 261.896C1915.71 261.633 1913.76 261.614 1910.8 261.836L1907.35 262.096ZM1932.14 296.016L1942.47 272.764L1930.03 253.104L1938.33 252.48L1946.4 265.71L1952.26 251.432L1960.47 250.814L1951.14 272.435L1964.8 293.559L1956.24 294.203L1947.33 279.978L1940.64 295.376L1932.14 296.016ZM1968.6 293.274L1965.41 250.796L1972.48 250.264L1975.13 285.526L1992.77 284.199L1993.32 291.415L1968.6 293.274ZM1995.54 277.234L2002.4 275.895C2003.59 281.309 2006.35 283.854 2010.67 283.528C2012.82 283.367 2014.46 282.686 2015.6 281.483C2016.74 280.261 2017.25 278.823 2017.13 277.167C2017.06 276.193 2016.78 275.382 2016.3 274.732C2015.82 274.083 2015.13 273.577 2014.22 273.214C2013.31 272.832 2011.13 272.252 2007.68 271.473C2004.59 270.784 2002.31 269.957 2000.83 268.992C1999.34 268.026 1998.12 266.708 1997.15 265.037C1996.2 263.346 1995.65 261.497 1995.5 259.491C1995.32 257.154 1995.69 255.011 1996.6 253.062C1997.53 251.112 1998.9 249.59 2000.69 248.495C2002.49 247.4 2004.76 246.749 2007.51 246.542C2011.64 246.232 2014.95 247.109 2017.43 249.175C2019.92 251.24 2021.39 254.352 2021.84 258.509L2014.77 259.423C2014.28 257.148 2013.49 255.592 2012.39 254.754C2011.29 253.917 2009.78 253.57 2007.87 253.713C2005.96 253.857 2004.52 254.366 2003.55 255.243C2002.58 256.119 2002.14 257.151 2002.23 258.339C2002.32 259.508 2002.86 260.456 2003.85 261.184C2004.85 261.912 2007.06 262.627 2010.51 263.328C2014.15 264.092 2016.8 264.989 2018.46 266.02C2020.15 267.029 2021.47 268.408 2022.45 270.157C2023.42 271.885 2024 274.035 2024.2 276.606C2024.48 280.326 2023.56 283.538 2021.45 286.243C2019.37 288.946 2015.89 290.481 2011.02 290.847C2002.41 291.495 1997.25 286.957 1995.54 277.234ZM2074.62 285.3L2066.91 285.88L2063.11 276.383L2049.09 277.437L2046.92 287.383L2039.39 287.95L2049.84 244.094L2057.35 243.529L2074.62 285.3ZM2060.29 269.338L2054.27 253.808L2050.7 270.059L2060.29 269.338ZM2078.39 285.017L2075.17 242.189L2090.1 241.066C2093.91 240.779 2096.67 240.963 2098.36 241.619C2100.06 242.256 2101.5 243.489 2102.7 245.319C2103.89 247.129 2104.59 249.358 2104.79 252.007C2105.04 255.357 2104.43 258.115 2102.97 260.282C2101.53 262.447 2099.34 263.904 2096.42 264.652C2098.02 265.628 2099.37 266.732 2100.46 267.962C2101.55 269.173 2103.08 271.389 2105.05 274.61L2109.94 282.644L2101.5 283.279L2095.65 274.346C2093.55 271.116 2092.14 269.107 2091.41 268.32C2090.68 267.512 2089.94 266.981 2089.18 266.725C2088.41 266.449 2087.21 266.373 2085.57 266.496L2084.11 266.606L2085.46 284.485L2078.39 285.017ZM2083.6 259.77L2088.86 259.374C2092.07 259.133 2094.11 258.843 2094.96 258.504C2095.82 258.146 2096.48 257.518 2096.97 256.62C2097.45 255.722 2097.63 254.562 2097.53 253.14C2097.42 251.777 2097.07 250.707 2096.46 249.93C2095.85 249.133 2095.07 248.615 2094.11 248.373C2093.43 248.209 2091.51 248.246 2088.33 248.485L2082.78 248.902L2083.6 259.77ZM2128.94 265.379L2128.4 258.163L2143.68 257.014L2144.96 274.076C2143.56 276.003 2141.5 277.725 2138.77 279.242C2136.04 280.759 2133.26 281.625 2130.42 281.839C2126.95 282.099 2123.83 281.482 2121.05 279.987C2118.27 278.472 2115.98 276.079 2114.17 272.807C2112.37 269.515 2111.3 265.57 2110.95 260.974C2110.6 256.261 2111.08 252.17 2112.38 248.703C2113.71 245.235 2115.55 242.579 2117.92 240.736C2120.31 238.892 2123.25 237.838 2126.73 237.576C2130.92 237.261 2134.35 238.08 2137.03 240.034C2139.72 241.966 2141.58 244.97 2142.61 249.045L2135.72 251.179C2135.03 249.018 2133.94 247.405 2132.45 246.342C2130.96 245.279 2129.24 244.821 2127.29 244.967C2124.27 245.194 2121.92 246.557 2120.22 249.054C2118.53 251.532 2117.86 255.176 2118.22 259.986C2118.61 265.148 2119.92 268.996 2122.15 271.531C2124.06 273.719 2126.49 274.701 2129.45 274.478C2130.83 274.374 2132.24 273.945 2133.67 273.191C2135.12 272.416 2136.39 271.42 2137.47 270.203L2137.06 264.769L2128.94 265.379ZM2152.01 279.48L2148.79 236.652L2174.85 234.692L2175.39 241.937L2156.4 243.366L2157.12 252.86L2174.76 251.533L2175.3 258.749L2157.66 260.076L2158.54 271.733L2178.17 270.256L2178.71 277.472L2152.01 279.48ZM2184.79 277.015L2181.57 234.187L2188.46 233.668L2204.99 261.188L2202.83 232.588L2209.44 232.091L2212.66 274.919L2205.53 275.455L2189.29 248.59L2191.39 276.519L2184.79 277.015ZM2228.02 273.764L2225.35 238.181L2214.92 238.965L2214.37 231.72L2242.27 229.621L2242.82 236.867L2232.42 237.649L2235.09 273.232L2228.02 273.764ZM2260.22 271.342L2270.54 248.09L2258.11 228.431L2266.4 227.807L2274.48 241.037L2280.34 226.759L2288.55 226.141L2279.22 247.761L2292.88 268.886L2284.32 269.53L2275.41 255.305L2268.72 270.703L2260.22 271.342ZM2310.15 267.588L2306.93 224.759L2318.32 223.903C2322.56 223.583 2325.36 223.579 2326.69 223.89C2328.82 224.395 2330.64 225.678 2332.15 227.739C2333.68 229.799 2334.57 232.532 2334.82 235.941C2335.06 239.038 2334.67 241.682 2333.66 243.873C2332.65 246.045 2331.3 247.625 2329.61 248.614C2327.92 249.583 2324.93 250.229 2320.65 250.551L2316 250.9L2317.22 267.056L2310.15 267.588ZM2314.54 231.473L2315.45 243.626L2319.37 243.332C2322 243.134 2323.77 242.815 2324.67 242.374C2325.6 241.933 2326.33 241.212 2326.86 240.212C2327.39 239.193 2327.6 237.982 2327.5 236.58C2327.39 235.158 2326.99 233.984 2326.29 233.057C2325.6 232.13 2324.78 231.535 2323.84 231.273C2322.9 231.011 2320.95 230.991 2317.99 231.214L2314.54 231.473ZM2339.33 265.393L2349.66 242.141L2337.22 222.481L2345.52 221.857L2353.59 235.088L2359.45 220.809L2367.66 220.192L2358.33 241.812L2371.99 262.936L2363.43 263.58L2354.52 249.355L2347.83 264.753L2339.33 265.393ZM2375.79 262.651L2372.6 220.173L2379.67 219.641L2382.32 254.903L2399.96 253.576L2400.51 260.792L2375.79 262.651ZM2402.73 246.611L2409.59 245.272C2410.78 250.686 2413.54 253.231 2417.86 252.906C2420.01 252.745 2421.65 252.063 2422.79 250.86C2423.93 249.638 2424.44 248.2 2424.32 246.544C2424.25 245.571 2423.97 244.759 2423.49 244.109C2423.01 243.46 2422.32 242.954 2421.41 242.591C2420.5 242.209 2418.32 241.629 2414.87 240.85C2411.78 240.162 2409.5 239.335 2408.02 238.369C2406.53 237.403 2405.31 236.085 2404.34 234.415C2403.39 232.723 2402.84 230.875 2402.69 228.869C2402.51 226.531 2402.88 224.389 2403.79 222.44C2404.72 220.489 2406.09 218.967 2407.88 217.872C2409.68 216.777 2411.95 216.126 2414.7 215.92C2418.83 215.609 2422.14 216.487 2424.62 218.552C2427.11 220.618 2428.58 223.729 2429.03 227.887L2421.96 228.8C2421.47 226.526 2420.68 224.969 2419.58 224.132C2418.48 223.294 2416.97 222.947 2415.06 223.09C2413.15 223.234 2411.71 223.744 2410.74 224.62C2409.77 225.496 2409.33 226.528 2409.42 227.716C2409.51 228.885 2410.05 229.833 2411.04 230.561C2412.04 231.29 2414.25 232.004 2417.7 232.705C2421.34 233.469 2423.99 234.367 2425.65 235.397C2427.34 236.407 2428.66 237.786 2429.64 239.534C2430.61 241.263 2431.19 243.413 2431.39 245.983C2431.67 249.703 2430.75 252.916 2428.64 255.62C2426.56 258.324 2423.08 259.858 2418.21 260.225C2409.6 260.872 2404.44 256.334 2402.73 246.611ZM2481.81 254.678L2474.1 255.258L2470.3 245.76L2456.27 246.815L2454.11 256.761L2446.58 257.327L2457.03 213.471L2464.54 212.906L2481.81 254.678ZM2467.48 238.715L2461.46 223.185L2457.89 239.436L2467.48 238.715ZM2485.58 254.394L2482.36 211.566L2497.29 210.443C2501.1 210.156 2503.86 210.341 2505.55 210.997C2507.25 211.633 2508.69 212.866 2509.89 214.696C2511.08 216.506 2511.78 218.735 2511.98 221.384C2512.23 224.734 2511.62 227.492 2510.16 229.659C2508.72 231.824 2506.53 233.281 2503.61 234.029C2505.21 235.006 2506.56 236.109 2507.65 237.339C2508.74 238.55 2510.27 240.766 2512.24 243.987L2517.13 252.021L2508.69 252.656L2502.84 243.724C2500.74 240.493 2499.33 238.484 2498.6 237.697C2497.87 236.89 2497.13 236.358 2496.37 236.102C2495.6 235.827 2494.4 235.75 2492.76 235.874L2491.3 235.983L2492.65 253.863L2485.58 254.394ZM2490.79 229.147L2496.05 228.752C2499.26 228.51 2501.3 228.22 2502.15 227.881C2503.01 227.523 2503.67 226.895 2504.16 225.997C2504.64 225.099 2504.82 223.939 2504.72 222.518C2504.61 221.154 2504.26 220.084 2503.65 219.307C2503.04 218.511 2502.26 217.992 2501.3 217.751C2500.62 217.586 2498.7 217.623 2495.52 217.862L2489.97 218.279L2490.79 229.147ZM2536.13 234.757L2535.59 227.541L2550.87 226.392L2552.15 243.453C2550.75 245.38 2548.69 247.102 2545.96 248.619C2543.23 250.137 2540.45 251.002 2537.61 251.216C2534.14 251.477 2531.02 250.86 2528.24 249.364C2525.46 247.85 2523.17 245.456 2521.36 242.185C2519.56 238.892 2518.49 234.948 2518.14 230.351C2517.79 225.638 2518.27 221.548 2519.57 218.081C2520.9 214.612 2522.74 211.956 2525.11 210.113C2527.5 208.269 2530.44 207.216 2533.92 206.953C2538.11 206.639 2541.54 207.458 2544.22 209.411C2546.91 211.344 2548.77 214.347 2549.8 218.422L2542.91 220.556C2542.22 218.395 2541.13 216.783 2539.64 215.72C2538.15 214.657 2536.43 214.198 2534.48 214.345C2531.46 214.572 2529.11 215.934 2527.41 218.431C2525.72 220.909 2525.05 224.553 2525.41 229.364C2525.8 234.525 2527.11 238.373 2529.34 240.909C2531.25 243.096 2533.68 244.078 2536.64 243.856C2538.02 243.752 2539.43 243.323 2540.86 242.569C2542.31 241.794 2543.58 240.797 2544.66 239.58L2544.25 234.146L2536.13 234.757ZM2559.2 248.858L2555.98 206.029L2582.04 204.07L2582.58 211.315L2563.59 212.743L2564.31 222.238L2581.95 220.91L2582.49 228.126L2564.85 229.453L2565.73 241.11L2585.36 239.634L2585.9 246.85L2559.2 248.858ZM2591.98 246.393L2588.76 203.564L2595.65 203.046L2612.18 230.566L2610.02 201.965L2616.63 201.468L2619.85 244.297L2612.72 244.833L2596.48 217.967L2598.58 245.896L2591.98 246.393ZM2635.21 243.141L2632.54 207.558L2622.11 208.342L2621.56 201.097L2649.46 198.999L2650.01 206.244L2639.61 207.026L2642.28 242.609L2635.21 243.141ZM2667.41 240.72L2677.73 217.468L2665.3 197.808L2673.59 197.184L2681.67 210.414L2687.53 196.136L2695.74 195.519L2686.41 217.139L2700.07 238.263L2691.51 238.907L2682.6 224.682L2675.91 240.08L2667.41 240.72ZM2717.34 236.965L2714.12 194.137L2725.51 193.28C2729.75 192.96 2732.55 192.956 2733.88 193.267C2736.01 193.773 2737.83 195.056 2739.34 197.117C2740.87 199.176 2741.76 201.91 2742.01 205.318C2742.25 208.415 2741.86 211.059 2740.85 213.25C2739.84 215.422 2738.49 217.002 2736.8 217.991C2735.11 218.96 2732.12 219.606 2727.84 219.928L2723.19 220.278L2724.41 236.433L2717.34 236.965ZM2721.73 200.85L2722.64 213.003L2726.56 212.709C2729.19 212.511 2730.96 212.192 2731.86 211.752C2732.79 211.31 2733.52 210.589 2734.05 209.589C2734.58 208.57 2734.79 207.359 2734.69 205.957C2734.58 204.535 2734.18 203.361 2733.48 202.434C2732.79 201.507 2731.97 200.913 2731.03 200.65C2730.09 200.388 2728.14 200.368 2725.18 200.591L2721.73 200.85ZM2746.52 234.77L2756.85 211.518L2744.41 191.858L2752.71 191.234L2760.78 204.465L2766.64 190.186L2774.85 189.569L2765.52 211.189L2779.18 232.314L2770.62 232.957L2761.71 218.732L2755.02 234.131L2746.52 234.77ZM2782.98 232.028L2779.79 189.55L2786.86 189.019L2789.51 224.28L2807.15 222.953L2807.7 230.169L2782.98 232.028ZM2809.92 215.988L2816.78 214.649C2817.97 220.064 2820.73 222.608 2825.05 222.283C2827.2 222.122 2828.84 221.44 2829.98 220.238C2831.12 219.016 2831.63 217.577 2831.51 215.922C2831.44 214.948 2831.16 214.136 2830.68 213.487C2830.2 212.837 2829.51 212.331 2828.6 211.969C2827.69 211.587 2825.51 211.006 2822.06 210.227C2818.97 209.539 2816.69 208.712 2815.21 207.746C2813.72 206.78 2812.5 205.462 2811.53 203.792C2810.58 202.101 2810.03 200.252 2809.88 198.246C2809.7 195.909 2810.07 193.766 2810.98 191.817C2811.91 189.867 2813.28 188.344 2815.07 187.249C2816.87 186.154 2819.14 185.503 2821.89 185.297C2826.02 184.986 2829.33 185.864 2831.81 187.929C2834.3 189.995 2835.77 193.106 2836.22 197.264L2829.15 198.178C2828.66 195.903 2827.87 194.347 2826.77 193.509C2825.67 192.671 2824.16 192.324 2822.25 192.468C2820.34 192.611 2818.9 193.121 2817.93 193.997C2816.96 194.873 2816.52 195.905 2816.61 197.093C2816.7 198.262 2817.24 199.21 2818.23 199.939C2819.23 200.667 2821.44 201.381 2824.89 202.082C2828.53 202.847 2831.18 203.744 2832.84 204.774C2834.53 205.784 2835.85 207.163 2836.83 208.911C2837.8 210.64 2838.38 212.79 2838.58 215.361C2838.86 219.081 2837.94 222.293 2835.83 224.998C2833.75 227.701 2830.27 229.236 2825.4 229.602C2816.79 230.249 2811.63 225.711 2809.92 215.988ZM2889 224.055L2881.29 224.635L2877.49 215.137L2863.46 216.192L2861.3 226.138L2853.77 226.705L2864.22 182.848L2871.73 182.283L2889 224.055ZM2874.67 208.093L2868.65 192.563L2865.08 208.813L2874.67 208.093ZM2892.77 223.772L2889.55 180.943L2904.48 179.821C2908.29 179.533 2911.05 179.718 2912.74 180.374C2914.44 181.01 2915.88 182.244 2917.08 184.073C2918.27 185.883 2918.97 188.113 2919.17 190.761C2919.42 194.111 2918.81 196.87 2917.35 199.036C2915.91 201.201 2913.72 202.658 2910.8 203.407C2912.4 204.383 2913.75 205.486 2914.84 206.717C2915.93 207.927 2917.46 210.143 2919.43 213.364L2924.32 221.399L2915.88 222.034L2910.03 213.101C2907.93 209.871 2906.52 207.862 2905.79 207.074C2905.06 206.267 2904.32 205.735 2903.56 205.479C2902.79 205.204 2901.59 205.128 2899.95 205.251L2898.49 205.361L2899.84 223.24L2892.77 223.772ZM2897.98 198.524L2903.24 198.129C2906.45 197.887 2908.49 197.597 2909.34 197.259C2910.2 196.901 2910.86 196.273 2911.35 195.375C2911.83 194.477 2912.01 193.317 2911.91 191.895C2911.8 190.532 2911.45 189.461 2910.84 188.685C2910.23 187.888 2909.45 187.369 2908.49 187.128C2907.81 186.963 2905.89 187.001 2902.71 187.239L2897.16 187.657L2897.98 198.524ZM2943.32 204.134L2942.78 196.918L2958.06 195.769L2959.34 212.83C2957.94 214.757 2955.88 216.479 2953.15 217.997C2950.42 219.514 2947.64 220.379 2944.8 220.593C2941.33 220.854 2938.21 220.237 2935.43 218.742C2932.65 217.227 2930.36 214.834 2928.55 211.562C2926.75 208.269 2925.68 204.325 2925.33 199.728C2924.98 195.015 2925.46 190.925 2926.76 187.458C2928.09 183.989 2929.93 181.334 2932.3 179.491C2934.69 177.646 2937.63 176.593 2941.11 176.331C2945.3 176.016 2948.73 176.835 2951.41 178.788C2954.1 180.721 2955.96 183.725 2956.99 187.799L2950.1 189.933C2949.41 187.772 2948.32 186.16 2946.83 185.097C2945.34 184.034 2943.62 183.575 2941.67 183.722C2938.65 183.949 2936.3 185.311 2934.6 187.808C2932.91 190.286 2932.24 193.93 2932.6 198.741C2932.99 203.902 2934.3 207.75 2936.53 210.286C2938.44 212.473 2940.87 213.455 2943.83 213.233C2945.21 213.129 2946.62 212.7 2948.05 211.946C2949.5 211.171 2950.77 210.175 2951.85 208.957L2951.44 203.523L2943.32 204.134ZM2966.39 218.235L2963.17 175.407L2989.23 173.447L2989.77 180.692L2970.78 182.12L2971.5 191.615L2989.14 190.288L2989.68 197.504L2972.04 198.831L2972.92 210.487L2992.55 209.011L2993.09 216.227L2966.39 218.235ZM2999.17 215.77L2995.95 172.942L3002.84 172.423L3019.37 199.943L3017.21 171.342L3023.82 170.846L3027.04 213.674L3019.91 214.21L3003.67 187.344L3005.77 215.273L2999.17 215.77ZM3042.4 212.518L3039.73 176.935L3029.3 177.719L3028.75 170.474L3056.65 168.376L3057.2 175.621L3046.8 176.403L3049.47 211.986L3042.4 212.518ZM3074.6 210.097L3084.92 186.845L3072.49 167.185L3080.78 166.561L3088.86 179.792L3094.72 165.513L3102.93 164.896L3093.6 186.516L3107.26 207.641L3098.7 208.284L3089.79 194.059L3083.1 209.458L3074.6 210.097ZM3124.53 206.342L3121.3 163.514L3132.7 162.657C3136.94 162.338 3139.74 162.334 3141.07 162.644C3143.2 163.15 3145.02 164.433 3146.53 166.494C3148.06 168.553 3148.95 171.287 3149.2 174.695C3149.44 177.792 3149.05 180.436 3148.04 182.627C3147.03 184.799 3145.68 186.38 3143.99 187.368C3142.3 188.338 3139.31 188.983 3135.03 189.306L3130.38 189.655L3131.6 205.811L3124.53 206.342ZM3128.92 170.227L3129.83 182.381L3133.75 182.086C3136.38 181.888 3138.15 181.569 3139.05 181.129C3139.98 180.687 3140.71 179.966 3141.24 178.967C3141.77 177.947 3141.98 176.737 3141.88 175.334C3141.77 173.913 3141.37 172.738 3140.67 171.811C3139.98 170.884 3139.16 170.29 3138.22 170.028C3137.28 169.765 3135.33 169.746 3132.37 169.968L3128.92 170.227ZM3153.71 204.147L3164.04 180.895L3151.6 161.236L3159.9 160.612L3167.97 173.842L3173.83 159.564L3182.04 158.946L3172.71 180.566L3186.37 201.691L3177.81 202.335L3168.9 188.11L3162.21 203.508L3153.71 204.147ZM3190.17 201.405L3186.98 158.928L3194.05 158.396L3196.7 193.658L3214.34 192.331L3214.89 199.547L3190.17 201.405ZM3217.11 185.365L3223.97 184.027C3225.16 189.441 3227.92 191.985 3232.24 191.66C3234.39 191.499 3236.03 190.817 3237.17 189.615C3238.31 188.393 3238.82 186.954 3238.7 185.299C3238.63 184.325 3238.35 183.513 3237.87 182.864C3237.39 182.215 3236.7 181.709 3235.79 181.346C3234.88 180.964 3232.7 180.383 3229.25 179.605C3226.16 178.916 3223.88 178.089 3222.4 177.123C3220.91 176.158 3219.69 174.84 3218.72 173.169C3217.77 171.478 3217.22 169.629 3217.07 167.623C3216.89 165.286 3217.26 163.143 3218.17 161.194C3219.1 159.244 3220.47 157.721 3222.26 156.626C3224.06 155.531 3226.33 154.881 3229.08 154.674C3233.21 154.364 3236.52 155.241 3239 157.307C3241.49 159.372 3242.96 162.484 3243.41 166.641L3236.34 167.555C3235.85 165.28 3235.06 163.724 3233.96 162.886C3232.86 162.048 3231.35 161.701 3229.44 161.845C3227.53 161.988 3226.09 162.498 3225.12 163.374C3224.15 164.251 3223.71 165.283 3223.8 166.471C3223.89 167.639 3224.43 168.588 3225.42 169.316C3226.42 170.044 3228.63 170.759 3232.08 171.46C3235.72 172.224 3238.37 173.121 3240.03 174.152C3241.72 175.161 3243.04 176.54 3244.02 178.288C3244.99 180.017 3245.57 182.167 3245.77 184.738C3246.05 188.458 3245.13 191.67 3243.02 194.375C3240.94 197.078 3237.46 198.613 3232.59 198.979C3223.98 199.627 3218.82 195.089 3217.11 185.365ZM3296.19 193.432L3288.48 194.012L3284.68 184.515L3270.65 185.569L3268.49 195.515L3260.96 196.082L3271.41 152.225L3278.92 151.661L3296.19 193.432ZM3281.86 177.47L3275.84 161.94L3272.27 178.191L3281.86 177.47ZM3299.96 193.149L3296.74 150.321L3311.67 149.198C3315.48 148.911 3318.24 149.095 3319.93 149.751C3321.63 150.388 3323.07 151.621 3324.27 153.45C3325.46 155.261 3326.16 157.49 3326.36 160.139C3326.61 163.489 3326 166.247 3324.54 168.413C3323.1 170.579 3320.91 172.035 3317.99 172.784C3319.59 173.76 3320.94 174.864 3322.03 176.094C3323.12 177.305 3324.65 179.52 3326.62 182.741L3331.51 190.776L3323.07 191.411L3317.22 182.478C3315.12 179.248 3313.71 177.239 3312.98 176.451C3312.25 175.644 3311.51 175.113 3310.75 174.857C3309.98 174.581 3308.78 174.505 3307.14 174.628L3305.68 174.738L3307.03 192.617L3299.96 193.149ZM3305.17 167.902L3310.43 167.506C3313.64 167.265 3315.68 166.974 3316.53 166.636C3317.39 166.278 3318.05 165.65 3318.54 164.752C3319.02 163.854 3319.2 162.694 3319.1 161.272C3318.99 159.909 3318.64 158.839 3318.03 158.062C3317.42 157.265 3316.64 156.746 3315.68 156.505C3315 156.341 3313.08 156.378 3309.9 156.617L3304.35 157.034L3305.17 167.902ZM3350.51 173.511L3349.97 166.295L3365.25 165.146L3366.53 182.207C3365.13 184.134 3363.07 185.857 3360.34 187.374C3357.61 188.891 3354.83 189.757 3351.99 189.971C3348.52 190.231 3345.4 189.614 3342.62 188.119C3339.84 186.604 3337.55 184.211 3335.74 180.939C3333.94 177.647 3332.87 173.702 3332.52 169.106C3332.17 164.392 3332.65 160.302 3333.95 156.835C3335.28 153.367 3337.12 150.711 3339.49 148.868C3341.88 147.023 3344.82 145.97 3348.3 145.708C3352.49 145.393 3355.92 146.212 3358.6 148.166C3361.29 150.098 3363.15 153.102 3364.18 157.177L3357.29 159.311C3356.6 157.149 3355.51 155.537 3354.02 154.474C3352.53 153.411 3350.81 152.953 3348.86 153.099C3345.84 153.326 3343.49 154.688 3341.79 157.186C3340.1 159.663 3339.43 163.308 3339.79 168.118C3340.18 173.279 3341.49 177.128 3343.72 179.663C3345.63 181.85 3348.06 182.833 3351.02 182.61C3352.4 182.506 3353.81 182.077 3355.24 181.323C3356.69 180.548 3357.96 179.552 3359.04 178.334L3358.63 172.9L3350.51 173.511ZM3373.58 187.612L3370.36 144.784L3396.42 142.824L3396.96 150.069L3377.97 151.497L3378.69 160.992L3396.33 159.665L3396.87 166.881L3379.23 168.208L3380.11 179.865L3399.74 178.388L3400.28 185.604L3373.58 187.612ZM3406.36 185.147L3403.14 142.319L3410.03 141.8L3426.56 169.32L3424.4 140.719L3431.01 140.223L3434.23 183.051L3427.1 183.587L3410.86 156.722L3412.96 184.651L3406.36 185.147ZM3449.59 181.895L3446.92 146.312L3436.49 147.097L3435.94 139.852L3463.84 137.753L3464.39 144.998L3453.99 145.781L3456.66 181.364L3449.59 181.895ZM3481.79 179.474L3492.11 156.222L3479.68 136.563L3487.97 135.939L3496.05 149.169L3501.91 134.891L3510.12 134.273L3500.79 155.893L3514.45 177.018L3505.89 177.662L3496.98 163.437L3490.29 178.835L3481.79 179.474ZM3531.72 175.719L3528.49 132.891L3539.89 132.034C3544.13 131.715 3546.93 131.711 3548.26 132.022C3550.39 132.527 3552.21 133.81 3553.72 135.871C3555.25 137.93 3556.14 140.664 3556.39 144.073C3556.63 147.169 3556.24 149.813 3555.23 152.005C3554.22 154.177 3552.87 155.757 3551.18 156.746C3549.49 157.715 3546.5 158.361 3542.22 158.683L3537.57 159.032L3538.79 175.188L3531.72 175.719ZM3536.11 139.605L3537.02 151.758L3540.94 151.463C3543.57 151.266 3545.34 150.947 3546.24 150.506C3547.17 150.064 3547.9 149.344 3548.43 148.344C3548.96 147.325 3549.17 146.114 3549.07 144.712C3548.96 143.29 3548.56 142.116 3547.86 141.189C3547.17 140.262 3546.35 139.667 3545.41 139.405C3544.47 139.143 3542.52 139.123 3539.56 139.345L3536.11 139.605ZM3560.9 173.525L3571.23 150.273L3558.79 130.613L3567.09 129.989L3575.16 143.219L3581.02 128.941L3589.23 128.324L3579.9 149.944L3593.56 171.068L3585 171.712L3576.09 157.487L3569.4 172.885L3560.9 173.525ZM3597.36 170.783L3594.17 128.305L3601.24 127.773L3603.89 163.035L3621.53 161.708L3622.08 168.924L3597.36 170.783ZM3624.3 154.743L3631.16 153.404C3632.35 158.818 3635.11 161.363 3639.43 161.038C3641.58 160.876 3643.22 160.195 3644.36 158.992C3645.5 157.77 3646.01 156.332 3645.89 154.676C3645.82 153.702 3645.54 152.891 3645.06 152.241C3644.58 151.592 3643.89 151.086 3642.98 150.723C3642.07 150.341 3639.89 149.761 3636.44 148.982C3633.35 148.294 3631.07 147.467 3629.59 146.501C3628.1 145.535 3626.88 144.217 3625.91 142.547C3624.96 140.855 3624.41 139.007 3624.26 137C3624.08 134.663 3624.45 132.52 3625.36 130.572C3626.29 128.621 3627.66 127.099 3629.45 126.004C3631.25 124.909 3633.52 124.258 3636.27 124.051C3640.4 123.741 3643.71 124.618 3646.19 126.684C3648.68 128.749 3650.15 131.861 3650.6 136.019L3643.53 136.932C3643.04 134.658 3642.25 133.101 3641.15 132.263C3640.05 131.426 3638.54 131.079 3636.63 131.222C3634.72 131.366 3633.28 131.876 3632.31 132.752C3631.34 133.628 3630.9 134.66 3630.99 135.848C3631.08 137.017 3631.62 137.965 3632.61 138.693C3633.61 139.421 3635.82 140.136 3639.27 140.837C3642.91 141.601 3645.56 142.498 3647.22 143.529C3648.91 144.538 3650.23 145.917 3651.21 147.666C3652.18 149.395 3652.76 151.544 3652.96 154.115C3653.24 157.835 3652.32 161.048 3650.21 163.752C3648.13 166.456 3644.65 167.99 3639.78 168.356C3631.17 169.004 3626.01 164.466 3624.3 154.743ZM3703.38 162.81L3695.67 163.39L3691.87 153.892L3677.84 154.946L3675.68 164.892L3668.15 165.459L3678.6 121.603L3686.11 121.038L3703.38 162.81ZM3689.05 146.847L3683.03 131.317L3679.46 147.568L3689.05 146.847ZM3707.15 162.526L3703.93 119.698L3718.86 118.575C3722.67 118.288 3725.43 118.472 3727.12 119.129C3728.82 119.765 3730.26 120.998 3731.46 122.828C3732.65 124.638 3733.35 126.867 3733.55 129.516C3733.8 132.866 3733.19 135.624 3731.73 137.791C3730.29 139.956 3728.1 141.413 3725.18 142.161C3726.78 143.138 3728.13 144.241 3729.22 145.471C3730.31 146.682 3731.84 148.898 3733.81 152.119L3738.7 160.153L3730.26 160.788L3724.41 151.856C3722.31 148.625 3720.9 146.616 3720.17 145.829C3719.44 145.021 3718.7 144.49 3717.94 144.234C3717.17 143.959 3715.97 143.882 3714.33 144.005L3712.87 144.115L3714.22 161.994L3707.15 162.526ZM3712.36 137.279L3717.62 136.884C3720.83 136.642 3722.87 136.352 3723.72 136.013C3724.58 135.655 3725.24 135.027 3725.73 134.129C3726.21 133.231 3726.39 132.071 3726.29 130.65C3726.18 129.286 3725.83 128.216 3725.22 127.439C3724.61 126.643 3723.83 126.124 3722.87 125.882C3722.19 125.718 3720.27 125.755 3717.09 125.994L3711.54 126.411L3712.36 137.279ZM3757.7 142.889L3757.16 135.673L3772.44 134.524L3773.72 151.585C3772.32 153.512 3770.26 155.234 3767.53 156.751C3764.8 158.268 3762.02 159.134 3759.18 159.348C3755.71 159.609 3752.59 158.991 3749.81 157.496C3747.03 155.981 3744.74 153.588 3742.93 150.316C3741.13 147.024 3740.06 143.079 3739.71 138.483C3739.36 133.77 3739.84 129.68 3741.14 126.212C3742.47 122.744 3744.31 120.088 3746.68 118.245C3749.07 116.401 3752.01 115.347 3755.49 115.085C3759.68 114.77 3763.11 115.59 3765.79 117.543C3768.48 119.476 3770.34 122.479 3771.37 126.554L3764.48 128.688C3763.79 126.527 3762.7 124.915 3761.21 123.851C3759.72 122.788 3758 122.33 3756.05 122.476C3753.03 122.704 3750.68 124.066 3748.98 126.563C3747.29 129.041 3746.62 132.685 3746.98 137.495C3747.37 142.657 3748.68 146.505 3750.91 149.04C3752.82 151.228 3755.25 152.21 3758.21 151.987C3759.59 151.883 3761 151.454 3762.43 150.7C3763.88 149.925 3765.15 148.929 3766.23 147.712L3765.82 142.278L3757.7 142.889ZM3780.77 156.989L3777.55 114.161L3803.61 112.201L3804.15 119.447L3785.16 120.875L3785.88 130.369L3803.52 129.042L3804.06 136.258L3786.42 137.585L3787.3 149.242L3806.93 147.765L3807.47 154.981L3780.77 156.989ZM3813.55 154.524L3810.33 111.696L3817.22 111.178L3833.75 138.698L3831.59 110.097L3838.2 109.6L3841.42 152.428L3834.29 152.964L3818.05 126.099L3820.15 154.028L3813.55 154.524ZM3856.78 151.273L3854.11 115.69L3843.68 116.474L3843.13 109.229L3871.03 107.131L3871.58 114.376L3861.18 115.158L3863.85 150.741L3856.78 151.273ZM3888.98 148.852L3899.3 125.6L3886.87 105.94L3895.16 105.316L3903.24 118.546L3909.1 104.268L3917.31 103.65L3907.98 125.271L3921.64 146.395L3913.08 147.039L3904.17 132.814L3897.48 148.212L3888.98 148.852ZM3938.91 145.097L3935.68 102.268L3947.08 101.412C3951.32 101.092 3954.12 101.088 3955.45 101.399C3957.58 101.904 3959.4 103.188 3960.91 105.248C3962.44 107.308 3963.33 110.042 3963.58 113.45C3963.82 116.547 3963.43 119.191 3962.42 121.382C3961.41 123.554 3960.06 125.134 3958.37 126.123C3956.68 127.092 3953.69 127.738 3949.41 128.06L3944.76 128.41L3945.98 144.565L3938.91 145.097ZM3943.3 108.982L3944.21 121.135L3948.13 120.841C3950.76 120.643 3952.53 120.324 3953.43 119.884C3954.36 119.442 3955.09 118.721 3955.62 117.721C3956.15 116.702 3956.36 115.491 3956.26 114.089C3956.15 112.667 3955.75 111.493 3955.05 110.566C3954.36 109.639 3953.54 109.044 3952.6 108.782C3951.66 108.52 3949.71 108.5 3946.75 108.723L3943.3 108.982ZM3968.09 142.902L3978.42 119.65L3965.98 99.9901L3974.28 99.3662L3982.35 112.597L3988.21 98.3182L3996.42 97.7008L3987.09 119.321L4000.75 140.446L3992.19 141.089L3983.28 126.864L3976.59 142.263L3968.09 142.902ZM4004.55 140.16L4001.36 97.6822L4008.43 97.1506L4011.08 132.412L4028.72 131.085L4029.27 138.301L4004.55 140.16ZM4031.49 124.12L4038.35 122.781C4039.54 128.195 4042.3 130.74 4046.62 130.415C4048.77 130.254 4050.41 129.572 4051.55 128.369C4052.69 127.148 4053.2 125.709 4053.08 124.053C4053.01 123.08 4052.73 122.268 4052.25 121.619C4051.77 120.969 4051.08 120.463 4050.17 120.101C4049.26 119.718 4047.08 119.138 4043.63 118.359C4040.54 117.671 4038.26 116.844 4036.78 115.878C4035.29 114.912 4034.07 113.594 4033.1 111.924C4032.15 110.232 4031.6 108.384 4031.45 106.378C4031.27 104.041 4031.64 101.898 4032.55 99.9488C4033.48 97.9985 4034.85 96.4759 4036.64 95.381C4038.44 94.286 4040.71 93.6353 4043.46 93.4287C4047.59 93.1182 4050.9 93.9957 4053.38 96.0612C4055.87 98.1266 4057.34 101.238 4057.79 105.396L4050.72 106.31C4050.23 104.035 4049.44 102.479 4048.34 101.641C4047.24 100.803 4045.73 100.456 4043.82 100.599C4041.91 100.743 4040.47 101.253 4039.5 102.129C4038.53 103.005 4038.09 104.037 4038.18 105.225C4038.27 106.394 4038.81 107.342 4039.8 108.071C4040.8 108.799 4043.01 109.513 4046.46 110.214C4050.1 110.978 4052.75 111.876 4054.41 112.906C4056.1 113.916 4057.42 115.295 4058.4 117.043C4059.37 118.772 4059.95 120.922 4060.15 123.493C4060.43 127.212 4059.51 130.425 4057.4 133.13C4055.32 135.833 4051.84 137.368 4046.97 137.734C4038.36 138.381 4033.2 133.843 4031.49 124.12ZM4110.57 132.187L4102.86 132.767L4099.06 123.269L4085.03 124.324L4082.87 134.27L4075.34 134.836L4085.79 90.98L4093.3 90.4153L4110.57 132.187ZM4096.24 116.225L4090.22 100.694L4086.65 116.945L4096.24 116.225ZM4114.34 131.903L4111.12 89.0751L4126.05 87.9524C4129.86 87.6653 4132.62 87.8498 4134.31 88.5058C4136.01 89.1423 4137.45 90.3754 4138.65 92.205C4139.84 94.0151 4140.54 96.2445 4140.74 98.8933C4140.99 102.243 4140.38 105.001 4138.92 107.168C4137.48 109.333 4135.29 110.79 4132.37 111.538C4133.97 112.515 4135.32 113.618 4136.41 114.848C4137.5 116.059 4139.03 118.275 4141 121.496L4145.89 129.531L4137.45 130.165L4131.6 121.233C4129.5 118.003 4128.09 115.994 4127.36 115.206C4126.63 114.399 4125.89 113.867 4125.13 113.611C4124.36 113.336 4123.16 113.26 4121.52 113.383L4120.06 113.492L4121.41 131.372L4114.34 131.903ZM4119.55 106.656L4124.81 106.261C4128.02 106.019 4130.06 105.729 4130.91 105.39C4131.77 105.032 4132.43 104.404 4132.92 103.506C4133.4 102.608 4133.58 101.449 4133.48 100.027C4133.37 98.6635 4133.02 97.5933 4132.41 96.8163C4131.8 96.0199 4131.02 95.501 4130.06 95.2597C4129.38 95.0952 4127.46 95.1324 4124.28 95.3711L4118.73 95.7886L4119.55 106.656ZM4164.89 112.266L4164.35 105.05L4179.63 103.901L4180.91 120.962C4179.51 122.889 4177.45 124.611 4174.72 126.128C4171.99 127.646 4169.21 128.511 4166.37 128.725C4162.9 128.986 4159.78 128.369 4157 126.873C4154.22 125.359 4151.93 122.965 4150.12 119.694C4148.32 116.401 4147.25 112.457 4146.9 107.86C4146.55 103.147 4147.03 99.0568 4148.33 95.5897C4149.66 92.1212 4151.5 89.4654 4153.87 87.6224C4156.26 85.778 4159.2 84.7247 4162.68 84.4625C4166.87 84.1476 4170.3 84.9669 4172.98 86.9203C4175.67 88.8528 4177.53 91.8564 4178.56 95.9312L4171.67 98.0653C4170.98 95.904 4169.89 94.2918 4168.4 93.2287C4166.91 92.1656 4165.19 91.7073 4163.24 91.8538C4160.22 92.0808 4157.87 93.4429 4156.17 95.9402C4154.48 98.4179 4153.81 102.062 4154.17 106.873C4154.56 112.034 4155.87 115.882 4158.1 118.418C4160.01 120.605 4162.44 121.587 4165.4 121.365C4166.78 121.261 4168.19 120.832 4169.62 120.078C4171.07 119.303 4172.34 118.306 4173.42 117.089L4173.01 111.655L4164.89 112.266ZM4187.96 126.367L4184.74 83.5385L4210.8 81.5787L4211.34 88.8239L4192.35 90.252L4193.07 99.7466L4210.71 98.4196L4211.25 105.636L4193.61 106.963L4194.49 118.619L4214.12 117.143L4214.66 124.359L4187.96 126.367ZM4220.74 123.902L4217.52 81.0734L4224.41 80.5549L4240.94 108.075L4238.78 79.4739L4245.39 78.9774L4248.61 121.806L4241.48 122.342L4225.24 95.4762L4227.34 123.405L4220.74 123.902ZM4263.97 120.65L4261.3 85.0669L4250.87 85.8512L4250.32 78.6061L4278.22 76.5079L4278.77 83.753L4268.37 84.5352L4271.04 120.118L4263.97 120.65ZM4296.17 118.229L4306.49 94.9768L4294.06 75.3171L4302.35 74.6931L4310.43 87.9236L4316.29 73.6451L4324.5 73.0277L4315.17 94.6479L4328.83 115.773L4320.27 116.416L4311.36 102.191L4304.67 117.589L4296.17 118.229ZM4346.1 114.474L4342.87 71.6458L4354.27 70.7889C4358.51 70.4696 4361.31 70.4654 4362.64 70.7762C4364.77 71.2817 4366.59 72.5648 4368.1 74.6256C4369.63 76.685 4370.52 79.4188 4370.77 82.8272C4371.01 85.9239 4370.62 88.5679 4369.61 90.7592C4368.6 92.9311 4367.25 94.5114 4365.56 95.5002C4363.87 96.4695 4360.88 97.1152 4356.6 97.4375L4351.95 97.7868L4353.17 113.942L4346.1 114.474ZM4350.49 78.3592L4351.4 90.5124L4355.32 90.218C4357.95 90.0203 4359.72 89.7012 4360.62 89.2609C4361.55 88.8191 4362.28 88.0983 4362.81 87.0985C4363.34 86.0793 4363.55 84.8686 4363.45 83.4663C4363.34 82.0445 4362.94 80.8701 4362.24 79.9432C4361.55 79.0163 4360.73 78.4217 4359.79 78.1594C4358.85 77.8972 4356.9 77.8773 4353.94 78.1L4350.49 78.3592ZM4375.28 112.279L4385.61 89.0272L4373.17 69.3674L4381.47 68.7434L4389.54 81.9739L4395.4 67.6954L4403.61 67.0781L4394.28 88.6982L4407.94 109.823L4399.38 110.467L4390.47 96.2415L4383.78 111.64L4375.28 112.279ZM4411.74 109.537L4408.55 67.0595L4415.62 66.5278L4418.27 101.79L4435.91 100.463L4436.46 107.679L4411.74 109.537ZM4438.68 93.4972L4445.54 92.1585C4446.73 97.5727 4449.49 100.117 4453.81 99.7921C4455.96 99.631 4457.6 98.9492 4458.74 97.7468C4459.88 96.5249 4460.39 95.0862 4460.27 93.4307C4460.2 92.4569 4459.92 91.6453 4459.44 90.9958C4458.96 90.3464 4458.27 89.8404 4457.36 89.4778C4456.45 89.0958 4454.27 88.5153 4450.82 87.7365C4447.73 87.0481 4445.45 86.2211 4443.97 85.2553C4442.48 84.2896 4441.26 82.9715 4440.29 81.3011C4439.34 79.6098 4438.79 77.7611 4438.64 75.755C4438.46 73.4179 4438.83 71.2749 4439.74 69.3261C4440.67 67.3758 4442.04 65.8532 4443.83 64.7582C4445.63 63.6633 4447.9 63.0125 4450.65 62.806C4454.78 62.4955 4458.09 63.373 4460.57 65.4384C4463.06 67.5039 4464.53 70.6155 4464.98 74.7731L4457.91 75.6868C4457.42 73.4121 4456.63 71.8558 4455.53 71.018C4454.43 70.1803 4452.92 69.8332 4451.01 69.9767C4449.1 70.1203 4447.66 70.6301 4446.69 71.5063C4445.72 72.3824 4445.28 73.4145 4445.37 74.6026C4445.46 75.7712 4446 76.7196 4446.99 77.4478C4447.99 78.176 4450.2 78.8906 4453.65 79.5915C4457.29 80.3557 4459.94 81.253 4461.6 82.2835C4463.29 83.293 4464.61 84.6719 4465.59 86.4202C4466.56 88.1491 4467.14 90.2989 4467.34 92.8698C4467.62 96.5898 4466.7 99.8021 4464.59 102.507C4462.51 105.21 4459.03 106.745 4454.16 107.111C4445.55 107.758 4440.39 103.22 4438.68 93.4972ZM4517.76 101.564L4510.05 102.144L4506.25 92.6464L4492.22 93.701L4490.06 103.647L4482.53 104.214L4492.98 60.3572L4500.49 59.7926L4517.76 101.564ZM4503.43 85.6018L4497.41 70.0717L4493.84 86.3225L4503.43 85.6018ZM4521.53 101.281L4518.31 58.4524L4533.24 57.3297C4537.05 57.0426 4539.81 57.2271 4541.5 57.8831C4543.2 58.5196 4544.64 59.7527 4545.84 61.5822C4547.03 63.3923 4547.73 65.6218 4547.93 68.2705C4548.18 71.6205 4547.57 74.3787 4546.11 76.5453C4544.67 78.7104 4542.48 80.1672 4539.56 80.9157C4541.16 81.8921 4542.51 82.9954 4543.6 84.2256C4544.69 85.4364 4546.22 87.6523 4548.19 90.8733L4553.08 98.9078L4544.64 99.5428L4538.79 90.6101C4536.69 87.3798 4535.28 85.3709 4534.55 84.5832C4533.82 83.776 4533.08 83.2445 4532.32 82.9885C4531.55 82.7131 4530.35 82.6369 4528.71 82.7599L4527.25 82.8698L4528.6 100.749L4521.53 101.281ZM4526.74 76.0336L4532 75.6381C4535.21 75.3964 4537.25 75.1063 4538.1 74.7677C4538.96 74.4097 4539.62 73.7817 4540.11 72.8837C4540.59 71.9857 4540.77 70.8259 4540.67 69.4041C4540.56 68.0408 4540.21 66.9706 4539.6 66.1936C4538.99 65.3971 4538.21 64.8783 4537.25 64.6369C4536.57 64.4725 4534.65 64.5097 4531.47 64.7484L4525.92 65.1658L4526.74 76.0336ZM4572.08 81.6431L4571.54 74.4271L4586.82 73.2781L4588.1 90.3393C4586.7 92.2663 4584.64 93.9884 4581.91 95.5057C4579.18 97.023 4576.4 97.8886 4573.56 98.1024C4570.09 98.3631 4566.97 97.7459 4564.19 96.2507C4561.41 94.7359 4559.12 92.3427 4557.31 89.0711C4555.51 85.7784 4554.44 81.8339 4554.09 77.2375C4553.74 72.5243 4554.22 68.4341 4555.52 64.967C4556.85 61.4984 4558.69 58.8427 4561.06 56.9997C4563.45 55.1553 4566.39 54.102 4569.87 53.8398C4574.06 53.5249 4577.49 54.3441 4580.17 56.2976C4582.86 58.2301 4584.72 61.2337 4585.75 65.3085L4578.86 67.4426C4578.17 65.2813 4577.08 63.6691 4575.59 62.606C4574.1 61.5429 4572.38 61.0846 4570.43 61.231C4567.41 61.4581 4565.06 62.8202 4563.36 65.3174C4561.67 67.7952 4561 71.4394 4561.36 76.25C4561.75 81.4112 4563.06 85.2595 4565.29 87.7949C4567.2 89.9822 4569.63 90.9646 4572.59 90.7419C4573.97 90.6379 4575.38 90.2089 4576.81 89.4549C4578.26 88.6799 4579.53 87.6837 4580.61 86.4662L4580.2 81.0323L4572.08 81.6431ZM4595.15 95.744L4591.93 52.9158L4617.99 50.956L4618.53 58.2011L4599.54 59.6292L4600.26 69.1239L4617.9 67.7969L4618.44 75.0128L4600.8 76.3399L4601.68 87.9964L4621.31 86.52L4621.85 93.7359L4595.15 95.744ZM4627.93 93.2789L4624.71 50.4507L4631.6 49.9321L4648.12 77.4521L4645.97 48.8512L4652.58 48.3546L4655.8 91.1829L4648.67 91.719L4632.43 64.8534L4634.53 92.7824L4627.93 93.2789ZM4671.16 90.0273L4668.49 54.4442L4658.06 55.2285L4657.51 47.9833L4685.41 45.8851L4685.96 53.1303L4675.56 53.9125L4678.23 89.4956L4671.16 90.0273ZM4703.36 87.6061L4713.68 64.3541L4701.25 44.6943L4709.54 44.0704L4717.62 57.3008L4723.48 43.0224L4731.69 42.405L4722.36 64.0251L4736.02 85.1498L4727.46 85.7935L4718.55 71.5684L4711.86 86.9668L4703.36 87.6061ZM4753.29 83.8513L4750.06 41.023L4761.46 40.1662C4765.7 39.8469 4768.5 39.8427 4769.83 40.1535C4771.96 40.659 4773.78 41.9421 4775.29 44.0029C4776.82 46.0623 4777.71 48.7961 4777.96 52.2044C4778.2 55.3012 4777.81 57.9452 4776.8 60.1365C4775.79 62.3083 4774.44 63.8886 4772.75 64.8774C4771.06 65.8467 4768.07 66.4925 4763.79 66.8147L4759.14 67.1641L4760.36 83.3196L4753.29 83.8513ZM4757.68 47.7365L4758.59 59.8897L4762.51 59.5953C4765.14 59.3975 4766.91 59.0785 4767.81 58.6381C4768.74 58.1963 4769.47 57.4755 4770 56.4758C4770.53 55.4566 4770.74 54.2458 4770.64 52.8435C4770.53 51.4218 4770.13 50.2474 4769.43 49.3205C4768.74 48.3935 4767.92 47.7989 4766.98 47.5367C4766.04 47.2744 4764.09 47.2546 4761.13 47.4773L4757.68 47.7365ZM4782.47 81.6564L4792.8 58.4044L4780.36 38.7447L4788.66 38.1207L4796.73 51.3512L4802.59 37.0727L4810.8 36.4553L4801.47 58.0755L4815.13 79.2001L4806.57 79.8439L4797.66 65.6188L4790.97 81.0171L4782.47 81.6564ZM4818.93 78.9145L4815.74 36.4368L4822.81 35.9051L4825.46 71.1669L4843.1 69.8398L4843.65 77.0558L4818.93 78.9145ZM4845.87 62.8745L4852.73 61.5357C4853.92 66.95 4856.68 69.4945 4861 69.1694C4863.15 69.0082 4864.79 68.3265 4865.93 67.124C4867.07 65.9021 4867.58 64.4635 4867.46 62.808C4867.39 61.8342 4867.11 61.0225 4866.63 60.3731C4866.15 59.7236 4865.46 59.2176 4864.55 58.8551C4863.64 58.473 4861.46 57.8926 4858.01 57.1137C4854.92 56.4254 4852.64 55.5983 4851.16 54.6326C4849.67 53.6669 4848.45 52.3488 4847.48 50.6784C4846.53 48.9871 4845.98 47.1384 4845.83 45.1323C4845.65 42.7951 4846.02 40.6522 4846.93 38.7034C4847.86 36.7531 4849.23 35.2305 4851.02 34.1355C4852.82 33.0406 4855.09 32.3898 4857.84 32.1833C4861.97 31.8728 4865.28 32.7503 4867.76 34.8157C4870.25 36.8812 4871.72 39.9928 4872.17 44.1504L4865.1 45.0641C4864.61 42.7893 4863.82 41.2331 4862.72 40.3953C4861.62 39.5576 4860.11 39.2105 4858.2 39.354C4856.29 39.4975 4854.85 40.0074 4853.88 40.8836C4852.91 41.7597 4852.47 42.7918 4852.56 43.9799C4852.65 45.1484 4853.19 46.0968 4854.18 46.8251C4855.18 47.5533 4857.39 48.2679 4860.84 48.9688C4864.48 49.733 4867.13 50.6303 4868.79 51.6608C4870.48 52.6703 4871.8 54.0492 4872.78 55.7975C4873.75 57.5264 4874.33 59.6762 4874.53 62.2471C4874.81 65.967 4873.89 69.1794 4871.78 71.8841C4869.7 74.5874 4866.22 76.1221 4861.35 76.4883C4852.74 77.1357 4847.58 72.5978 4845.87 62.8745ZM4924.95 70.9413L4917.24 71.5214L4913.44 62.0237L4899.41 63.0783L4897.25 73.0242L4889.72 73.591L4900.17 29.7345L4907.68 29.1699L4924.95 70.9413ZM4910.62 54.9791L4904.6 39.449L4901.03 55.6997L4910.62 54.9791ZM4928.72 70.6579L4925.5 27.8296L4940.43 26.7069C4944.24 26.4199 4947 26.6043 4948.69 27.2603C4950.39 27.8969 4951.83 29.1299 4953.03 30.9595C4954.22 32.7696 4954.92 34.9991 4955.12 37.6478C4955.37 40.9977 4954.76 43.756 4953.3 45.9226C4951.86 48.0877 4949.67 49.5445 4946.75 50.293C4948.35 51.2694 4949.7 52.3727 4950.79 53.6029C4951.88 54.8137 4953.41 57.0295 4955.38 60.2505L4960.27 68.2851L4951.83 68.92L4945.98 59.9873C4943.88 56.7571 4942.47 54.7481 4941.74 53.9605C4941.01 53.1533 4940.27 52.6217 4939.51 52.3658C4938.74 52.0903 4937.54 52.0141 4935.9 52.1372L4934.44 52.247L4935.79 70.1262L4928.72 70.6579ZM4933.93 45.4109L4939.19 45.0154C4942.4 44.7737 4944.44 44.4836 4945.29 44.145C4946.15 43.787 4946.81 43.1589 4947.3 42.261C4947.78 41.363 4947.96 40.2031 4947.86 38.7814C4947.75 37.418 4947.4 36.3479 4946.79 35.5709C4946.18 34.7744 4945.4 34.2555 4944.44 34.0142C4943.76 33.8498 4941.84 33.8869 4938.66 34.1257L4933.11 34.5431L4933.93 45.4109ZM4979.27 51.0204L4978.73 43.8044L4994.01 42.6553L4995.29 59.7165C4993.89 61.6435 4991.83 63.3657 4989.1 64.883C4986.37 66.4003 4983.59 67.2659 4980.75 67.4797C4977.28 67.7404 4974.16 67.1232 4971.38 65.6279C4968.6 64.1132 4966.31 61.72 4964.5 58.4483C4962.7 55.1557 4961.63 51.2112 4961.28 46.6148C4960.93 41.9015 4961.41 37.8114 4962.71 34.3443C4964.04 30.8757 4965.88 28.22 4968.25 26.377C4970.64 24.5326 4973.58 23.4793 4977.06 23.2171C4981.25 22.9022 4984.68 23.7214 4987.36 25.6749C4990.05 27.6074 4991.91 30.611 4992.94 34.6858L4986.05 36.8199C4985.36 34.6586 4984.27 33.0464 4982.78 31.9833C4981.29 30.9202 4979.57 30.4618 4977.62 30.6083C4974.6 30.8353 4972.25 32.1975 4970.55 34.6947C4968.86 37.1725 4968.19 40.8167 4968.55 45.6273C4968.94 50.7885 4970.25 54.6368 4972.48 57.1722C4974.39 59.3595 4976.82 60.3419 4979.78 60.1192C4981.16 60.0152 4982.57 59.5862 4984 58.8322C4985.45 58.0572 4986.72 57.061 4987.8 55.8435L4987.39 50.4096L4979.27 51.0204ZM5002.34 65.1213L4999.12 22.293L5025.18 20.3333L5025.72 27.5784L5006.73 29.0065L5007.45 38.5012L5025.09 37.1742L5025.63 44.3901L5007.99 45.7171L5008.87 57.3737L5028.5 55.8972L5029.04 63.1132L5002.34 65.1213ZM5035.12 62.6562L5031.9 19.8279L5038.79 19.3094L5055.31 46.8293L5053.16 18.2285L5059.77 17.7319L5062.99 60.5602L5055.86 61.0963L5039.62 34.2307L5041.72 62.1597L5035.12 62.6562ZM5078.35 59.4045L5075.68 23.8214L5065.25 24.6058L5064.7 17.3606L5092.6 15.2624L5093.15 22.5076L5082.75 23.2897L5085.42 58.8729L5078.35 59.4045ZM5110.55 56.9834L5120.87 33.7314L5108.44 14.0716L5116.73 13.4476L5124.81 26.6781L5130.67 12.3996L5138.88 11.7823L5129.55 33.4024L5143.21 54.5271L5134.65 55.1708L5125.74 40.9457L5119.05 56.344L5110.55 56.9834ZM5160.48 53.2286L5157.25 10.4003L5168.65 9.54346C5172.89 9.22415 5175.69 9.21993 5177.02 9.53079C5179.15 10.0363 5180.97 11.3194 5182.48 13.3802C5184.01 15.4395 5184.9 18.1734 5185.15 21.5817C5185.39 24.6784 5185 27.3225 5183.99 29.5138C5182.98 31.6856 5181.63 33.2659 5179.94 34.2547C5178.25 35.224 5175.26 35.8698 5170.98 36.192L5166.33 36.5413L5167.55 52.6969L5160.48 53.2286ZM5164.87 17.1138L5165.78 29.267L5169.7 28.9726C5172.33 28.7748 5174.1 28.4558 5175 28.0154C5175.93 27.5736 5176.66 26.8528 5177.19 25.8531C5177.72 24.8339 5177.93 23.6231 5177.83 22.2208C5177.72 20.7991 5177.32 19.6247 5176.62 18.6978C5175.93 17.7708 5175.11 17.1762 5174.17 16.914C5173.23 16.6517 5171.28 16.6319 5168.32 16.8545L5164.87 17.1138ZM5189.66 51.0337L5199.99 27.7817L5187.55 8.12195L5195.85 7.49799L5203.92 20.7285L5209.78 6.44998L5217.99 5.83261L5208.66 27.4528L5222.32 48.5774L5213.76 49.2211L5204.85 34.9961L5198.16 50.3944L5189.66 51.0337ZM5226.12 48.2918L5222.93 5.81407L5230 5.28238L5232.65 40.5441L5250.29 39.2171L5250.84 46.4331L5226.12 48.2918ZM5253.06 32.2517L5259.92 30.913C5261.11 36.3273 5263.87 38.8718 5268.19 38.5466C5270.34 38.3855 5271.98 37.7037 5273.12 36.5013C5274.26 35.2794 5274.77 33.8407 5274.65 32.1852C5274.58 31.2114 5274.3 30.3998 5273.82 29.7504C5273.34 29.1009 5272.65 28.5949 5271.74 28.2323C5270.83 27.8503 5268.65 27.2699 5265.2 26.491C5262.11 25.8027 5259.83 24.9756 5258.35 24.0099C5256.86 23.0441 5255.64 21.7261 5254.67 20.0557C5253.72 18.3643 5253.17 16.5156 5253.02 14.5096C5252.84 12.1724 5253.21 10.0294 5254.12 8.08063C5255.05 6.13035 5256.42 4.60773 5258.21 3.51279C5260.01 2.41784 5262.28 1.7671 5265.03 1.56058C5269.16 1.25006 5272.47 2.12753 5274.95 4.193C5277.44 6.25847 5278.91 9.37004 5279.36 13.5277L5272.29 14.4414C5271.8 12.1666 5271.01 10.6104 5269.91 9.7726C5268.81 8.93485 5267.3 8.58774 5265.39 8.73128C5263.48 8.87482 5262.04 9.38467 5261.07 10.2608C5260.1 11.137 5259.66 12.1691 5259.75 13.3571C5259.84 14.5257 5260.38 15.4741 5261.37 16.2023C5262.37 16.9306 5264.58 17.6451 5268.03 18.3461C5271.67 19.1103 5274.32 20.0076 5275.98 21.0381C5277.67 22.0476 5278.99 23.4265 5279.97 25.1748C5280.94 26.9036 5281.52 29.0535 5281.72 31.6243C5282 35.3443 5281.08 38.5567 5278.97 41.2614C5276.89 43.9647 5273.41 45.4994 5268.54 45.8656C5259.93 46.513 5254.77 41.975 5253.06 32.2517Z" fill="url(#paint0_radial_1162_2684)"/>
</g>
<defs>
<filter id="filter0_d_1162_2684" x="0.160156" y="0.481445" width="5286.55" height="445.342" filterUnits="userSpaceOnUse" color-interpolation-filters="sRGB">
<feFlood flood-opacity="0" result="BackgroundImageFix"/>
<feColorMatrix in="SourceAlpha" type="matrix" values="0 0 0 0 0 0 0 0 0 0 0 0 0 0 0 0 0 0 127 0" result="hardAlpha"/>
<feOffset dx="4" dy="4"/>
<feComposite in2="hardAlpha" operator="out"/>
<feColorMatrix type="matrix" values="0 0 0 0 1 0 0 0 0 0.183333 0 0 0 0 0.918333 0 0 0 1 0"/>
<feBlend mode="normal" in2="BackgroundImageFix" result="effect1_dropShadow_1162_2684"/>
<feBlend mode="normal" in="SourceGraphic" in2="effect1_dropShadow_1162_2684" result="shape"/>
</filter>
<radialGradient id="paint0_radial_1162_2684" cx="0" cy="0" r="1" gradientUnits="userSpaceOnUse" gradientTransform="translate(-1.95236 426.188) rotate(-4.38286) scale(5377.24 7658.79)">
<stop stop-color="#7A64FF"/>
<stop offset="0.123504" stop-color="#8AFFAB"/>
<stop offset="0.252504" stop-color="#FF6464"/>
<stop offset="0.407972" stop-color="#5076FF"/>
<stop offset="0.558649" stop-color="#FBFF48"/>
<stop offset="0.723014" stop-color="#25FF3B"/>
<stop offset="0.854185" stop-color="#E125FF"/>
<stop offset="1" stop-color="#FF2525"/>
</radialGradient>
</defs>
</svg>
