<svg width="1440" height="57" viewBox="0 0 1440 57" fill="none" xmlns="http://www.w3.org/2000/svg">
<path d="M-14 51.3304C141.652 51.3304 297.303 51.3304 452.955 51.3304C524.623 51.3304 596.292 51.3304 667.961 51.3304C708.69 51.3304 750.134 52.1155 790.746 50.7372C818.122 49.8081 844.947 47.4085 872.337 46.5351C895.345 45.8014 918.501 45.9913 941.569 45.9913C975.171 45.9913 1008.88 46.2982 1042.43 45.5463C1093.94 44.3919 1147.33 42.8614 1198.7 45.2991C1247.81 47.6295 1297.13 48.8357 1346.6 49.9462C1384.32 50.793 1422.31 49.5968 1459.95 50.6383C1481.15 51.225 1502.94 54 1524 54" stroke="white" stroke-width="5" stroke-linecap="round"/>
<path d="M-5 43C23.3094 36.0064 62.3953 39.8232 90.4171 38.8025C221.64 34.0225 352.777 27.8151 484.079 24.9753C659.74 21.1761 835.574 23 1011.27 23C1099.23 23 1187.18 23 1275.14 23C1306.43 23 1337.9 24.1566 1368.69 18.0617C1396.76 12.5051 1427.45 12.2682 1456.11 11.8889C1470 11.7051 1483.35 8.95415 1497.15 7.44444C1508.9 6.15977 1524.41 7.90569 1535 3" stroke="white" stroke-width="5" stroke-linecap="round"/>
</svg>
