<svg width="185" height="46" viewBox="0 0 185 46" fill="none" xmlns="http://www.w3.org/2000/svg">
<rect width="15.4167" height="15.3333" fill="#FF80E3"/>
<rect x="15.4165" y="15.3333" width="15.4167" height="15.3333" fill="#FF80E3"/>
<rect x="15.4165" width="15.4167" height="15.3333" fill="#FF80E3"/>
<rect x="46.25" width="15.4167" height="15.3333" fill="#FF80E3"/>
<rect x="61.6665" y="15.3333" width="15.4167" height="15.3333" fill="#FF80E3"/>
<rect x="46.25" y="30.6667" width="15.4167" height="15.3333" fill="#FF80E3"/>
<rect x="77.0835" y="30.6667" width="15.4167" height="15.3333" fill="#FF80E3"/>
<rect x="107.917" width="15.4167" height="15.3333" fill="#FF80E3"/>
<rect x="107.917" y="15.3333" width="15.4167" height="15.3333" fill="#FF80E3"/>
<rect x="107.917" y="30.6667" width="15.4167" height="15.3333" fill="#FF80E3"/>
<rect x="123.333" y="30.6667" width="15.4167" height="15.3333" fill="#FF80E3"/>
<rect x="154.167" y="30.6667" width="15.4167" height="15.3333" fill="#FFB6F8"/>
<rect x="169.583" y="30.6667" width="15.4167" height="15.3333" fill="#FFB6F8"/>
<rect x="169.583" y="15.3333" width="15.4167" height="15.3333" fill="#FFB6F8"/>
<rect x="169.583" width="15.4167" height="15.3333" fill="#FF80E3"/>
<rect x="154.167" y="15.3333" width="15.4167" height="15.3333" fill="#FF80E3"/>
<rect x="154.167" width="15.4167" height="15.3333" fill="#FF80E3"/>
<rect x="77.0835" width="15.4167" height="15.3333" fill="#FF80E3"/>
<rect y="15.3333" width="15.4167" height="15.3333" fill="#FF80E3"/>
<rect y="30.6667" width="15.4167" height="15.3333" fill="#FF80E3"/>
</svg>
