<svg width="548" height="543" viewBox="0 0 548 543" fill="none" xmlns="http://www.w3.org/2000/svg">
<path d="M19.6559 39.0694C28.4333 46.5686 35.7183 56.5763 42.2246 66.0759C50.068 77.5279 32.78 81.8981 23.9727 86.7101C22.7827 87.3603 2.85136 98.6827 5.19072 99.1514C15.3654 101.19 24.8218 104.826 34.1968 109.317C60.8014 122.062 38.6724 143.848 28.8197 161.661C25.6807 167.336 18.5472 175.685 27.3807 178.35C37.6961 181.463 52.7137 188.408 55.478 200.122C60.2636 220.403 44.8428 243.959 36.3173 261.039C34.7385 264.202 15.4967 295.313 23.594 295.783C28.8833 296.09 37.0998 295.234 41.1643 299.576C47.983 306.862 37.549 331.585 35.3328 339.176C34.0847 343.451 23.3829 365.354 31.016 366.562C34.734 367.15 42.9539 364.837 45.5568 368.458C46.1467 369.279 47.1893 374.004 46.2385 372.099C46.0105 371.643 45.7447 370.097 45.2539 369.824C44.8375 369.592 44.5564 370.564 44.4966 371.037C44.0995 374.18 43.6123 386.455 43.5878 386.968C42.4695 410.304 40.4802 433.701 40.104 457.064C40.0349 461.356 40.104 456.421 40.104 455.092C40.104 442.813 41.366 481.423 49.3435 490.746C53.4301 495.522 92.077 458.921 97.2831 474.891C101.199 486.905 98.299 499.546 100.388 511.684C101.734 519.503 118.499 513.618 122.199 512.746C133.53 510.076 148.558 504.114 159.688 510.546C166.169 514.291 169.299 524.804 178.091 520.18C185.695 516.182 192.59 507.116 202.326 509.332C211.752 511.478 216.41 523.398 226.561 524.277C235.478 525.049 239.769 512.13 243.979 506.525C255.21 491.576 285.04 510.154 296.16 516.615C311.529 525.544 338.924 551.387 354.248 529.284C360.579 520.152 357.028 510.959 370.606 513.96C382.7 516.632 393.517 523.011 405.974 524.277C417.396 525.437 420.313 519.659 429.83 515.932C444.119 510.337 457.696 515.42 471.635 519.118C490.935 524.238 508.104 517.263 520.862 502.353C528.45 493.486 518.454 489.585 511.547 483.767C491.437 466.828 491.246 445.65 507.988 425.354C513.594 418.558 520.52 412.681 527.678 407.602C531.416 404.95 537.527 402.613 540.553 399.03C541.768 397.592 532.082 393.447 531.465 391.065C530.456 387.168 534.195 381.027 535.63 378.093C541.259 366.581 545.229 357.506 541.613 344.183C537.485 328.97 527.004 317.732 520.105 304.052C516.487 296.879 522.194 294.536 526.391 289.714C534.602 280.279 521.287 272.273 514.501 266.728C498.093 253.325 470.458 240.141 479.057 214.46C488.406 186.542 513.98 169.103 532.222 147.702C541.035 137.364 514.104 131.57 508.215 127.068C497.229 118.67 531.055 93.5284 535.706 87.317C550.61 67.4118 531.824 53.4776 514.804 44.2279C511.957 42.6809 494.204 36.8953 494.204 32.6212C494.204 21.9112 497.332 13.4544 485.722 6.75257C473.168 -0.494226 463.509 16.5486 457.549 24.8075C453.717 30.1182 449.56 38.1407 442.932 40.5866C430.565 45.1505 412.153 33.4661 401.506 28.904C399.264 27.9432 365.572 11.1562 363.26 15.4007C358.474 24.1909 352.489 31.0206 341.828 32.6971C324.064 35.4902 309.443 25.6238 292.979 21.6972C285.058 19.8081 282.813 39.5266 280.332 44.6831C272.629 60.6907 257.115 55.9297 243.374 50.6003C219.061 41.1709 194.632 25.4084 168.7 20.8627C162.266 19.7349 164.463 23.0418 161.43 26.4765C159.842 28.2741 156.274 28.009 154.311 28.0695C140.875 28.4836 127.329 27.671 113.944 26.6282C103.322 25.8006 92.8052 24.3452 82.212 23.2903C79.5922 23.0294 73.7213 21.8016 71.2306 23.8213C66.3757 27.7581 71.0126 37.952 63.1271 39.828C54.0043 41.9983 43.597 38.3726 34.424 37.7798C29.6128 37.4688 28.5511 42.1481 26.4719 45.8969" stroke="#FF80E3" stroke-width="10" stroke-linecap="round"/>
</svg>
