<?xml version="1.0" encoding="UTF-8"?><svg width="200" height="200" xmlns="http://www.w3.org/2000/svg" shape-rendering="crispEdges"><rect width="10" height="10" x="00" y="00" fill="rgb(255,183,77)" /><rect width="10" height="10" x="10" y="00" fill="rgb(255,183,77)" /><rect width="10" height="10" x="20" y="00" fill="rgb(255,183,77)" /><rect width="10" height="10" x="30" y="00" fill="rgb(255,183,77)" /><rect width="10" height="10" x="40" y="00" fill="rgb(255,183,77)" /><rect width="10" height="10" x="50" y="00" fill="rgb(255,183,77)" /><rect width="10" height="10" x="60" y="00" fill="rgb(255,183,77)" /><rect width="10" height="10" x="70" y="00" fill="rgb(255,183,77)" /><rect width="10" height="10" x="80" y="00" fill="rgb(255,183,77)" /><rect width="10" height="10" x="90" y="00" fill="rgb(255,183,77)" /><rect width="10" height="10" x="100" y="00" fill="rgb(255,183,77)" /><rect width="10" height="10" x="110" y="00" fill="rgb(255,183,77)" /><rect width="10" height="10" x="120" y="00" fill="rgb(255,183,77)" /><rect width="10" height="10" x="130" y="00" fill="rgb(255,183,77)" /><rect width="10" height="10" x="140" y="00" fill="rgb(255,183,77)" /><rect width="10" height="10" x="150" y="00" fill="rgb(255,183,77)" /><rect width="10" height="10" x="160" y="00" fill="rgb(255,183,77)" /><rect width="10" height="10" x="170" y="00" fill="rgb(255,183,77)" /><rect width="10" height="10" x="180" y="00" fill="rgb(255,183,77)" /><rect width="10" height="10" x="190" y="00" fill="rgb(255,183,77)" /><rect width="10" height="10" x="00" y="10" fill="rgb(255,183,77)" /><rect width="10" height="10" x="10" y="10" fill="rgb(255,183,77)" /><rect width="10" height="10" x="20" y="10" fill="rgb(255,183,77)" /><rect width="10" height="10" x="30" y="10" fill="rgb(251,192,45)" /><rect width="10" height="10" x="40" y="10" fill="rgb(251,192,45)" /><rect width="10" height="10" x="50" y="10" fill="rgb(251,192,45)" /><rect width="10" height="10" x="60" y="10" fill="rgb(251,192,45)" /><rect width="10" height="10" x="70" y="10" fill="rgb(251,192,45)" /><rect width="10" height="10" x="80" y="10" fill="rgb(251,192,45)" /><rect width="10" height="10" x="90" y="10" fill="rgb(251,192,45)" /><rect width="10" height="10" x="100" y="10" fill="rgb(251,192,45)" /><rect width="10" height="10" x="110" y="10" fill="rgb(251,192,45)" /><rect width="10" height="10" x="120" y="10" fill="rgb(251,192,45)" /><rect width="10" height="10" x="130" y="10" fill="rgb(251,192,45)" /><rect width="10" height="10" x="140" y="10" fill="rgb(251,192,45)" /><rect width="10" height="10" x="150" y="10" fill="rgb(251,192,45)" /><rect width="10" height="10" x="160" y="10" fill="rgb(251,192,45)" /><rect width="10" height="10" x="170" y="10" fill="rgb(255,183,77)" /><rect width="10" height="10" x="180" y="10" fill="rgb(255,183,77)" /><rect width="10" height="10" x="190" y="10" fill="rgb(255,183,77)" /><rect width="10" height="10" x="00" y="20" fill="rgb(255,183,77)" /><rect width="10" height="10" x="10" y="20" fill="rgb(255,183,77)" /><rect width="10" height="10" x="20" y="20" fill="rgb(251,192,45)" /><rect width="10" height="10" x="30" y="20" fill="rgb(255,193,7)" /><rect width="10" height="10" x="40" y="20" fill="rgb(255,193,7)" /><rect width="10" height="10" x="50" y="20" fill="rgb(191,54,12)" /><rect width="10" height="10" x="60" y="20" fill="rgb(191,54,12)" /><rect width="10" height="10" x="70" y="20" fill="rgb(191,54,12)" /><rect width="10" height="10" x="80" y="20" fill="rgb(0,96,100)" /><rect width="10" height="10" x="90" y="20" fill="rgb(233,30,99)" /><rect width="10" height="10" x="100" y="20" fill="rgb(123,31,162)" /><rect width="10" height="10" x="110" y="20" fill="rgb(242,242,242)" /><rect width="10" height="10" x="120" y="20" fill="rgb(183,28,28)" /><rect width="10" height="10" x="130" y="20" fill="rgb(183,28,28)" /><rect width="10" height="10" x="140" y="20" fill="rgb(255,183,77)" /><rect width="10" height="10" x="150" y="20" fill="rgb(255,183,77)" /><rect width="10" height="10" x="160" y="20" fill="rgb(255,183,77)" /><rect width="10" height="10" x="170" y="20" fill="rgb(255,193,7)" /><rect width="10" height="10" x="180" y="20" fill="rgb(255,193,7)" /><rect width="10" height="10" x="190" y="20" fill="rgb(251,192,45)" /><rect width="10" height="10" x="00" y="30" fill="rgb(255,183,77)" /><rect width="10" height="10" x="10" y="30" fill="rgb(255,183,77)" /><rect width="10" height="10" x="20" y="30" fill="rgb(255,193,7)" /><rect width="10" height="10" x="30" y="30" fill="rgb(255,193,7)" /><rect width="10" height="10" x="40" y="30" fill="rgb(255,193,7)" /><rect width="10" height="10" x="50" y="30" fill="rgb(3,169,244)" /><rect width="10" height="10" x="60" y="30" fill="rgb(255,255,255)" /><rect width="10" height="10" x="70" y="30" fill="rgb(209,196,233)" /><rect width="10" height="10" x="80" y="30" fill="rgb(225,190,231)" /><rect width="10" height="10" x="90" y="30" fill="rgb(209,196,233)" /><rect width="10" height="10" x="100" y="30" fill="rgb(255,255,255)" /><rect width="10" height="10" x="110" y="30" fill="rgb(77,208,225)" /><rect width="10" height="10" x="120" y="30" fill="rgb(0,151,167)" /><rect width="10" height="10" x="130" y="30" fill="rgb(77,208,225)" /><rect width="10" height="10" x="140" y="30" fill="rgb(255,183,77)" /><rect width="10" height="10" x="150" y="30" fill="rgb(255,183,77)" /><rect width="10" height="10" x="160" y="30" fill="rgb(255,183,77)" /><rect width="10" height="10" x="170" y="30" fill="rgb(255,193,7)" /><rect width="10" height="10" x="180" y="30" fill="rgb(255,193,7)" /><rect width="10" height="10" x="190" y="30" fill="rgb(251,192,45)" /><rect width="10" height="10" x="00" y="40" fill="rgb(255,183,77)" /><rect width="10" height="10" x="10" y="40" fill="rgb(255,193,7)" /><rect width="10" height="10" x="20" y="40" fill="rgb(255,193,7)" /><rect width="10" height="10" x="30" y="40" fill="rgb(255,193,7)" /><rect width="10" height="10" x="40" y="40" fill="rgb(82,82,82)" /><rect width="10" height="10" x="50" y="40" fill="rgb(0,0,0)" /><rect width="10" height="10" x="60" y="40" fill="rgb(209,196,233)" /><rect width="10" height="10" x="70" y="40" fill="rgb(225,190,231)" /><rect width="10" height="10" x="80" y="40" fill="rgb(0,151,167)" /><rect width="10" height="10" x="90" y="40" fill="rgb(225,190,231)" /><rect width="10" height="10" x="100" y="40" fill="rgb(209,196,233)" /><rect width="10" height="10" x="110" y="40" fill="rgb(0,151,167)" /><rect width="10" height="10" x="120" y="40" fill="rgb(77,208,225)" /><rect width="10" height="10" x="130" y="40" fill="rgb(0,0,0)" /><rect width="10" height="10" x="140" y="40" fill="rgb(82,82,82)" /><rect width="10" height="10" x="150" y="40" fill="rgb(255,183,77)" /><rect width="10" height="10" x="160" y="40" fill="rgb(255,183,77)" /><rect width="10" height="10" x="170" y="40" fill="rgb(255,193,7)" /><rect width="10" height="10" x="180" y="40" fill="rgb(255,193,7)" /><rect width="10" height="10" x="190" y="40" fill="rgb(251,192,45)" /><rect width="10" height="10" x="00" y="50" fill="rgb(255,183,77)" /><rect width="10" height="10" x="10" y="50" fill="rgb(255,193,7)" /><rect width="10" height="10" x="20" y="50" fill="rgb(255,193,7)" /><rect width="10" height="10" x="30" y="50" fill="rgb(255,193,7)" /><rect width="10" height="10" x="40" y="50" fill="rgb(0,0,0)" /><rect width="10" height="10" x="50" y="50" fill="rgb(82,82,82)" /><rect width="10" height="10" x="60" y="50" fill="rgb(225,190,231)" /><rect width="10" height="10" x="70" y="50" fill="rgb(1,87,155)" /><rect width="10" height="10" x="80" y="50" fill="rgb(0,151,167)" /><rect width="10" height="10" x="90" y="50" fill="rgb(1,87,155)" /><rect width="10" height="10" x="100" y="50" fill="rgb(225,190,231)" /><rect width="10" height="10" x="110" y="50" fill="rgb(255,255,255)" /><rect width="10" height="10" x="120" y="50" fill="rgb(77,208,225)" /><rect width="10" height="10" x="130" y="50" fill="rgb(82,82,82)" /><rect width="10" height="10" x="140" y="50" fill="rgb(0,0,0)" /><rect width="10" height="10" x="150" y="50" fill="rgb(255,183,77)" /><rect width="10" height="10" x="160" y="50" fill="rgb(255,183,77)" /><rect width="10" height="10" x="170" y="50" fill="rgb(255,193,7)" /><rect width="10" height="10" x="180" y="50" fill="rgb(255,193,7)" /><rect width="10" height="10" x="190" y="50" fill="rgb(251,192,45)" /><rect width="10" height="10" x="00" y="60" fill="rgb(255,183,77)" /><rect width="10" height="10" x="10" y="60" fill="rgb(255,193,7)" /><rect width="10" height="10" x="20" y="60" fill="rgb(255,193,7)" /><rect width="10" height="10" x="30" y="60" fill="rgb(0,0,0)" /><rect width="10" height="10" x="40" y="60" fill="rgb(82,82,82)" /><rect width="10" height="10" x="50" y="60" fill="rgb(48,63,159)" /><rect width="10" height="10" x="60" y="60" fill="rgb(1,87,155)" /><rect width="10" height="10" x="70" y="60" fill="rgb(0,151,167)" /><rect width="10" height="10" x="80" y="60" fill="rgb(56,142,60)" /><rect width="10" height="10" x="90" y="60" fill="rgb(0,151,167)" /><rect width="10" height="10" x="100" y="60" fill="rgb(1,87,155)" /><rect width="10" height="10" x="110" y="60" fill="rgb(0,151,167)" /><rect width="10" height="10" x="120" y="60" fill="rgb(33,150,243)" /><rect width="10" height="10" x="130" y="60" fill="rgb(48,63,159)" /><rect width="10" height="10" x="140" y="60" fill="rgb(82,82,82)" /><rect width="10" height="10" x="150" y="60" fill="rgb(0,0,0)" /><rect width="10" height="10" x="160" y="60" fill="rgb(255,183,77)" /><rect width="10" height="10" x="170" y="60" fill="rgb(255,193,7)" /><rect width="10" height="10" x="180" y="60" fill="rgb(255,193,7)" /><rect width="10" height="10" x="190" y="60" fill="rgb(251,192,45)" /><rect width="10" height="10" x="00" y="70" fill="rgb(255,183,77)" /><rect width="10" height="10" x="10" y="70" fill="rgb(255,193,7)" /><rect width="10" height="10" x="20" y="70" fill="rgb(255,193,7)" /><rect width="10" height="10" x="30" y="70" fill="rgb(82,82,82)" /><rect width="10" height="10" x="40" y="70" fill="rgb(150,150,150)" /><rect width="10" height="10" x="50" y="70" fill="rgb(0,0,0)" /><rect width="10" height="10" x="60" y="70" fill="rgb(150,150,150)" /><rect width="10" height="10" x="70" y="70" fill="rgb(1,87,155)" /><rect width="10" height="10" x="80" y="70" fill="rgb(56,142,60)" /><rect width="10" height="10" x="90" y="70" fill="rgb(1,87,155)" /><rect width="10" height="10" x="100" y="70" fill="rgb(0,151,167)" /><rect width="10" height="10" x="110" y="70" fill="rgb(255,249,196)" /><rect width="10" height="10" x="120" y="70" fill="rgb(150,150,150)" /><rect width="10" height="10" x="130" y="70" fill="rgb(150,150,150)" /><rect width="10" height="10" x="140" y="70" fill="rgb(0,0,0)" /><rect width="10" height="10" x="150" y="70" fill="rgb(82,82,82)" /><rect width="10" height="10" x="160" y="70" fill="rgb(255,183,77)" /><rect width="10" height="10" x="170" y="70" fill="rgb(255,193,7)" /><rect width="10" height="10" x="180" y="70" fill="rgb(255,193,7)" /><rect width="10" height="10" x="190" y="70" fill="rgb(251,192,45)" /><rect width="10" height="10" x="00" y="80" fill="rgb(255,183,77)" /><rect width="10" height="10" x="10" y="80" fill="rgb(255,193,7)" /><rect width="10" height="10" x="20" y="80" fill="rgb(255,193,7)" /><rect width="10" height="10" x="30" y="80" fill="rgb(0,0,0)" /><rect width="10" height="10" x="40" y="80" fill="rgb(255,205,210)" /><rect width="10" height="10" x="50" y="80" fill="rgb(255,205,210)" /><rect width="10" height="10" x="60" y="80" fill="rgb(13,71,161)" /><rect width="10" height="10" x="70" y="80" fill="rgb(56,142,60)" /><rect width="10" height="10" x="80" y="80" fill="rgb(56,142,60)" /><rect width="10" height="10" x="90" y="80" fill="rgb(56,142,60)" /><rect width="10" height="10" x="100" y="80" fill="rgb(13,71,161)" /><rect width="10" height="10" x="110" y="80" fill="rgb(82,82,82)" /><rect width="10" height="10" x="120" y="80" fill="rgb(255,205,210)" /><rect width="10" height="10" x="130" y="80" fill="rgb(242,242,242)" /><rect width="10" height="10" x="140" y="80" fill="rgb(96,125,139)" /><rect width="10" height="10" x="150" y="80" fill="rgb(0,0,0)" /><rect width="10" height="10" x="160" y="80" fill="rgb(255,183,77)" /><rect width="10" height="10" x="170" y="80" fill="rgb(255,193,7)" /><rect width="10" height="10" x="180" y="80" fill="rgb(255,193,7)" /><rect width="10" height="10" x="190" y="80" fill="rgb(251,192,45)" /><rect width="10" height="10" x="00" y="90" fill="rgb(255,183,77)" /><rect width="10" height="10" x="10" y="90" fill="rgb(255,193,7)" /><rect width="10" height="10" x="20" y="90" fill="rgb(255,193,7)" /><rect width="10" height="10" x="30" y="90" fill="rgb(82,82,82)" /><rect width="10" height="10" x="40" y="90" fill="rgb(255,205,210)" /><rect width="10" height="10" x="50" y="90" fill="rgb(82,82,82)" /><rect width="10" height="10" x="60" y="90" fill="rgb(104,159,56)" /><rect width="10" height="10" x="70" y="90" fill="rgb(13,71,161)" /><rect width="10" height="10" x="80" y="90" fill="rgb(13,71,161)" /><rect width="10" height="10" x="90" y="90" fill="rgb(13,71,161)" /><rect width="10" height="10" x="100" y="90" fill="rgb(104,159,56)" /><rect width="10" height="10" x="110" y="90" fill="rgb(255,205,210)" /><rect width="10" height="10" x="120" y="90" fill="rgb(255,205,210)" /><rect width="10" height="10" x="130" y="90" fill="rgb(82,82,82)" /><rect width="10" height="10" x="140" y="90" fill="rgb(207,216,220)" /><rect width="10" height="10" x="150" y="90" fill="rgb(82,82,82)" /><rect width="10" height="10" x="160" y="90" fill="rgb(255,183,77)" /><rect width="10" height="10" x="170" y="90" fill="rgb(255,193,7)" /><rect width="10" height="10" x="180" y="90" fill="rgb(255,193,7)" /><rect width="10" height="10" x="190" y="90" fill="rgb(251,192,45)" /><rect width="10" height="10" x="00" y="100" fill="rgb(255,183,77)" /><rect width="10" height="10" x="10" y="100" fill="rgb(255,193,7)" /><rect width="10" height="10" x="20" y="100" fill="rgb(255,193,7)" /><rect width="10" height="10" x="30" y="100" fill="rgb(0,0,0)" /><rect width="10" height="10" x="40" y="100" fill="rgb(82,82,82)" /><rect width="10" height="10" x="50" y="100" fill="rgb(255,205,210)" /><rect width="10" height="10" x="60" y="100" fill="rgb(150,150,150)" /><rect width="10" height="10" x="70" y="100" fill="rgb(82,82,82)" /><rect width="10" height="10" x="80" y="100" fill="rgb(150,150,150)" /><rect width="10" height="10" x="90" y="100" fill="rgb(82,82,82)" /><rect width="10" height="10" x="100" y="100" fill="rgb(150,150,150)" /><rect width="10" height="10" x="110" y="100" fill="rgb(82,82,82)" /><rect width="10" height="10" x="120" y="100" fill="rgb(255,205,210)" /><rect width="10" height="10" x="130" y="100" fill="rgb(242,242,242)" /><rect width="10" height="10" x="140" y="100" fill="rgb(82,82,82)" /><rect width="10" height="10" x="150" y="100" fill="rgb(0,0,0)" /><rect width="10" height="10" x="160" y="100" fill="rgb(255,183,77)" /><rect width="10" height="10" x="170" y="100" fill="rgb(255,193,7)" /><rect width="10" height="10" x="180" y="100" fill="rgb(255,193,7)" /><rect width="10" height="10" x="190" y="100" fill="rgb(251,192,45)" /><rect width="10" height="10" x="00" y="110" fill="rgb(255,183,77)" /><rect width="10" height="10" x="10" y="110" fill="rgb(255,193,7)" /><rect width="10" height="10" x="20" y="110" fill="rgb(255,193,7)" /><rect width="10" height="10" x="30" y="110" fill="rgb(255,193,7)" /><rect width="10" height="10" x="40" y="110" fill="rgb(33,150,243)" /><rect width="10" height="10" x="50" y="110" fill="rgb(255,205,210)" /><rect width="10" height="10" x="60" y="110" fill="rgb(82,82,82)" /><rect width="10" height="10" x="70" y="110" fill="rgb(0,0,0)" /><rect width="10" height="10" x="80" y="110" fill="rgb(0,0,0)" /><rect width="10" height="10" x="90" y="110" fill="rgb(0,0,0)" /><rect width="10" height="10" x="100" y="110" fill="rgb(82,82,82)" /><rect width="10" height="10" x="110" y="110" fill="rgb(255,205,210)" /><rect width="10" height="10" x="120" y="110" fill="rgb(82,82,82)" /><rect width="10" height="10" x="130" y="110" fill="rgb(82,82,82)" /><rect width="10" height="10" x="140" y="110" fill="rgb(0,0,0)" /><rect width="10" height="10" x="150" y="110" fill="rgb(255,183,77)" /><rect width="10" height="10" x="160" y="110" fill="rgb(255,183,77)" /><rect width="10" height="10" x="170" y="110" fill="rgb(255,193,7)" /><rect width="10" height="10" x="180" y="110" fill="rgb(255,193,7)" /><rect width="10" height="10" x="190" y="110" fill="rgb(251,192,45)" /><rect width="10" height="10" x="00" y="120" fill="rgb(255,183,77)" /><rect width="10" height="10" x="10" y="120" fill="rgb(255,193,7)" /><rect width="10" height="10" x="20" y="120" fill="rgb(255,193,7)" /><rect width="10" height="10" x="30" y="120" fill="rgb(255,193,7)" /><rect width="10" height="10" x="40" y="120" fill="rgb(255,255,255)" /><rect width="10" height="10" x="50" y="120" fill="rgb(82,82,82)" /><rect width="10" height="10" x="60" y="120" fill="rgb(0,0,0)" /><rect width="10" height="10" x="70" y="120" fill="rgb(150,150,150)" /><rect width="10" height="10" x="80" y="120" fill="rgb(82,82,82)" /><rect width="10" height="10" x="90" y="120" fill="rgb(150,150,150)" /><rect width="10" height="10" x="100" y="120" fill="rgb(0,0,0)" /><rect width="10" height="10" x="110" y="120" fill="rgb(82,82,82)" /><rect width="10" height="10" x="120" y="120" fill="rgb(255,255,255)" /><rect width="10" height="10" x="130" y="120" fill="rgb(3,169,244)" /><rect width="10" height="10" x="140" y="120" fill="rgb(82,82,82)" /><rect width="10" height="10" x="150" y="120" fill="rgb(255,183,77)" /><rect width="10" height="10" x="160" y="120" fill="rgb(255,183,77)" /><rect width="10" height="10" x="170" y="120" fill="rgb(255,193,7)" /><rect width="10" height="10" x="180" y="120" fill="rgb(255,193,7)" /><rect width="10" height="10" x="190" y="120" fill="rgb(251,192,45)" /><rect width="10" height="10" x="00" y="130" fill="rgb(255,183,77)" /><rect width="10" height="10" x="10" y="130" fill="rgb(255,193,7)" /><rect width="10" height="10" x="20" y="130" fill="rgb(255,193,7)" /><rect width="10" height="10" x="30" y="130" fill="rgb(255,193,7)" /><rect width="10" height="10" x="40" y="130" fill="rgb(121,85,72)" /><rect width="10" height="10" x="50" y="130" fill="rgb(255,224,178)" /><rect width="10" height="10" x="60" y="130" fill="rgb(0,0,0)" /><rect width="10" height="10" x="70" y="130" fill="rgb(0,0,0)" /><rect width="10" height="10" x="80" y="130" fill="rgb(0,0,0)" /><rect width="10" height="10" x="90" y="130" fill="rgb(0,0,0)" /><rect width="10" height="10" x="100" y="130" fill="rgb(0,0,0)" /><rect width="10" height="10" x="110" y="130" fill="rgb(255,224,178)" /><rect width="10" height="10" x="120" y="130" fill="rgb(121,85,72)" /><rect width="10" height="10" x="130" y="130" fill="rgb(82,82,82)" /><rect width="10" height="10" x="140" y="130" fill="rgb(207,216,220)" /><rect width="10" height="10" x="150" y="130" fill="rgb(255,183,77)" /><rect width="10" height="10" x="160" y="130" fill="rgb(255,183,77)" /><rect width="10" height="10" x="170" y="130" fill="rgb(255,193,7)" /><rect width="10" height="10" x="180" y="130" fill="rgb(255,193,7)" /><rect width="10" height="10" x="190" y="130" fill="rgb(251,192,45)" /><rect width="10" height="10" x="00" y="140" fill="rgb(255,183,77)" /><rect width="10" height="10" x="10" y="140" fill="rgb(255,193,7)" /><rect width="10" height="10" x="20" y="140" fill="rgb(255,193,7)" /><rect width="10" height="10" x="30" y="140" fill="rgb(255,193,7)" /><rect width="10" height="10" x="40" y="140" fill="rgb(121,85,72)" /><rect width="10" height="10" x="50" y="140" fill="rgb(255,224,178)" /><rect width="10" height="10" x="60" y="140" fill="rgb(0,0,0)" /><rect width="10" height="10" x="70" y="140" fill="rgb(0,0,0)" /><rect width="10" height="10" x="80" y="140" fill="rgb(0,0,0)" /><rect width="10" height="10" x="90" y="140" fill="rgb(0,0,0)" /><rect width="10" height="10" x="100" y="140" fill="rgb(0,0,0)" /><rect width="10" height="10" x="110" y="140" fill="rgb(255,224,178)" /><rect width="10" height="10" x="120" y="140" fill="rgb(121,85,72)" /><rect width="10" height="10" x="130" y="140" fill="rgb(3,169,244)" /><rect width="10" height="10" x="140" y="140" fill="rgb(121,85,72)" /><rect width="10" height="10" x="150" y="140" fill="rgb(255,183,77)" /><rect width="10" height="10" x="160" y="140" fill="rgb(255,183,77)" /><rect width="10" height="10" x="170" y="140" fill="rgb(255,193,7)" /><rect width="10" height="10" x="180" y="140" fill="rgb(255,193,7)" /><rect width="10" height="10" x="190" y="140" fill="rgb(251,192,45)" /><rect width="10" height="10" x="00" y="150" fill="rgb(255,183,77)" /><rect width="10" height="10" x="10" y="150" fill="rgb(255,193,7)" /><rect width="10" height="10" x="20" y="150" fill="rgb(255,193,7)" /><rect width="10" height="10" x="30" y="150" fill="rgb(255,193,7)" /><rect width="10" height="10" x="40" y="150" fill="rgb(255,183,77)" /><rect width="10" height="10" x="50" y="150" fill="rgb(161,136,127)" /><rect width="10" height="10" x="60" y="150" fill="rgb(0,0,0)" /><rect width="10" height="10" x="70" y="150" fill="rgb(0,0,0)" /><rect width="10" height="10" x="80" y="150" fill="rgb(0,0,0)" /><rect width="10" height="10" x="90" y="150" fill="rgb(0,0,0)" /><rect width="10" height="10" x="100" y="150" fill="rgb(0,0,0)" /><rect width="10" height="10" x="110" y="150" fill="rgb(161,136,127)" /><rect width="10" height="10" x="120" y="150" fill="rgb(121,85,72)" /><rect width="10" height="10" x="130" y="150" fill="rgb(121,85,72)" /><rect width="10" height="10" x="140" y="150" fill="rgb(255,193,7)" /><rect width="10" height="10" x="150" y="150" fill="rgb(255,193,7)" /><rect width="10" height="10" x="160" y="150" fill="rgb(255,193,7)" /><rect width="10" height="10" x="170" y="150" fill="rgb(255,193,7)" /><rect width="10" height="10" x="180" y="150" fill="rgb(255,193,7)" /><rect width="10" height="10" x="190" y="150" fill="rgb(251,192,45)" /><rect width="10" height="10" x="00" y="160" fill="rgb(255,183,77)" /><rect width="10" height="10" x="10" y="160" fill="rgb(255,183,77)" /><rect width="10" height="10" x="20" y="160" fill="rgb(255,193,7)" /><rect width="10" height="10" x="30" y="160" fill="rgb(255,193,7)" /><rect width="10" height="10" x="40" y="160" fill="rgb(255,193,7)" /><rect width="10" height="10" x="50" y="160" fill="rgb(255,183,77)" /><rect width="10" height="10" x="60" y="160" fill="rgb(121,85,72)" /><rect width="10" height="10" x="70" y="160" fill="rgb(0,0,0)" /><rect width="10" height="10" x="80" y="160" fill="rgb(0,0,0)" /><rect width="10" height="10" x="90" y="160" fill="rgb(0,0,0)" /><rect width="10" height="10" x="100" y="160" fill="rgb(121,85,72)" /><rect width="10" height="10" x="110" y="160" fill="rgb(161,136,127)" /><rect width="10" height="10" x="120" y="160" fill="rgb(82,82,82)" /><rect width="10" height="10" x="130" y="160" fill="rgb(255,193,7)" /><rect width="10" height="10" x="140" y="160" fill="rgb(255,193,7)" /><rect width="10" height="10" x="150" y="160" fill="rgb(251,192,45)" /><rect width="10" height="10" x="160" y="160" fill="rgb(251,192,45)" /><rect width="10" height="10" x="170" y="160" fill="rgb(251,192,45)" /><rect width="10" height="10" x="180" y="160" fill="rgb(251,192,45)" /><rect width="10" height="10" x="190" y="160" fill="rgb(251,192,45)" /><rect width="10" height="10" x="00" y="170" fill="rgb(255,183,77)" /><rect width="10" height="10" x="10" y="170" fill="rgb(255,183,77)" /><rect width="10" height="10" x="20" y="170" fill="rgb(255,183,77)" /><rect width="10" height="10" x="30" y="170" fill="rgb(255,193,7)" /><rect width="10" height="10" x="40" y="170" fill="rgb(255,193,7)" /><rect width="10" height="10" x="50" y="170" fill="rgb(255,193,7)" /><rect width="10" height="10" x="60" y="170" fill="rgb(255,183,77)" /><rect width="10" height="10" x="70" y="170" fill="rgb(255,183,77)" /><rect width="10" height="10" x="80" y="170" fill="rgb(0,0,0)" /><rect width="10" height="10" x="90" y="170" fill="rgb(161,136,127)" /><rect width="10" height="10" x="100" y="170" fill="rgb(121,85,72)" /><rect width="10" height="10" x="110" y="170" fill="rgb(255,193,7)" /><rect width="10" height="10" x="120" y="170" fill="rgb(255,193,7)" /><rect width="10" height="10" x="130" y="170" fill="rgb(255,193,7)" /><rect width="10" height="10" x="140" y="170" fill="rgb(251,192,45)" /><rect width="10" height="10" x="150" y="170" fill="rgb(251,192,45)" /><rect width="10" height="10" x="160" y="170" fill="rgb(251,192,45)" /><rect width="10" height="10" x="170" y="170" fill="rgb(251,192,45)" /><rect width="10" height="10" x="180" y="170" fill="rgb(251,192,45)" /><rect width="10" height="10" x="190" y="170" fill="rgb(255,183,77)" /><rect width="10" height="10" x="00" y="180" fill="rgb(255,183,77)" /><rect width="10" height="10" x="10" y="180" fill="rgb(255,183,77)" /><rect width="10" height="10" x="20" y="180" fill="rgb(255,183,77)" /><rect width="10" height="10" x="30" y="180" fill="rgb(255,193,7)" /><rect width="10" height="10" x="40" y="180" fill="rgb(255,193,7)" /><rect width="10" height="10" x="50" y="180" fill="rgb(255,193,7)" /><rect width="10" height="10" x="60" y="180" fill="rgb(255,193,7)" /><rect width="10" height="10" x="70" y="180" fill="rgb(255,183,77)" /><rect width="10" height="10" x="80" y="180" fill="rgb(255,183,77)" /><rect width="10" height="10" x="90" y="180" fill="rgb(255,183,77)" /><rect width="10" height="10" x="100" y="180" fill="rgb(255,193,7)" /><rect width="10" height="10" x="110" y="180" fill="rgb(255,193,7)" /><rect width="10" height="10" x="120" y="180" fill="rgb(255,193,7)" /><rect width="10" height="10" x="130" y="180" fill="rgb(251,192,45)" /><rect width="10" height="10" x="140" y="180" fill="rgb(251,192,45)" /><rect width="10" height="10" x="150" y="180" fill="rgb(251,192,45)" /><rect width="10" height="10" x="160" y="180" fill="rgb(251,192,45)" /><rect width="10" height="10" x="170" y="180" fill="rgb(251,192,45)" /><rect width="10" height="10" x="180" y="180" fill="rgb(251,192,45)" /><rect width="10" height="10" x="190" y="180" fill="rgb(255,183,77)" /><rect width="10" height="10" x="00" y="190" fill="rgb(255,183,77)" /><rect width="10" height="10" x="10" y="190" fill="rgb(251,192,45)" /><rect width="10" height="10" x="20" y="190" fill="rgb(251,192,45)" /><rect width="10" height="10" x="30" y="190" fill="rgb(251,192,45)" /><rect width="10" height="10" x="40" y="190" fill="rgb(251,192,45)" /><rect width="10" height="10" x="50" y="190" fill="rgb(251,192,45)" /><rect width="10" height="10" x="60" y="190" fill="rgb(251,192,45)" /><rect width="10" height="10" x="70" y="190" fill="rgb(251,192,45)" /><rect width="10" height="10" x="80" y="190" fill="rgb(251,192,45)" /><rect width="10" height="10" x="90" y="190" fill="rgb(251,192,45)" /><rect width="10" height="10" x="100" y="190" fill="rgb(251,192,45)" /><rect width="10" height="10" x="110" y="190" fill="rgb(251,192,45)" /><rect width="10" height="10" x="120" y="190" fill="rgb(251,192,45)" /><rect width="10" height="10" x="130" y="190" fill="rgb(251,192,45)" /><rect width="10" height="10" x="140" y="190" fill="rgb(251,192,45)" /><rect width="10" height="10" x="150" y="190" fill="rgb(251,192,45)" /><rect width="10" height="10" x="160" y="190" fill="rgb(251,192,45)" /><rect width="10" height="10" x="170" y="190" fill="rgb(255,183,77)" /><rect width="10" height="10" x="180" y="190" fill="rgb(255,183,77)" /><rect width="10" height="10" x="190" y="190" fill="rgb(255,183,77)" /></svg>